<svg width="19" height="19" viewBox="0 0 19 19" fill="none" xmlns="http://www.w3.org/2000/svg">
<path d="M7.8653 1.3268L8.76982 0.401359C9.15282 0.00950619 9.7793 0.00234792 10.167 0.385394L18.2708 8.30202C18.6627 8.68502 18.6698 9.3115 18.2868 9.69923L10.3661 17.8031C9.98305 18.1949 9.35657 18.2021 8.96884 17.819L8.0434 16.9145C7.64738 16.5274 7.64833 15.8885 8.04374 15.5006L12.9561 10.7123L1.1108 10.8477C0.562633 10.854 0.116587 10.418 0.110323 9.86982L0.0952534 8.55092C0.0889899 8.00275 0.524958 7.55671 1.07313 7.55045L12.9185 7.4151L7.89793 2.7403C7.48964 2.36161 7.4741 1.72287 7.8653 1.3268Z" fill="white" fill-opacity="0.78"/>
</svg>
