<svg width="20" height="20" viewBox="0 0 20 20" fill="none" xmlns="http://www.w3.org/2000/svg">
<path d="M12.0019 17.8436L11.1209 18.7914C10.7479 19.1928 10.1218 19.2157 9.72458 18.8425L1.42444 11.132C1.02309 10.7589 1.00019 10.1328 1.37337 9.73561L9.08803 1.43532C9.46106 1.03397 10.0872 1.01107 10.4844 1.38426L11.4323 2.26525C11.8379 2.64225 11.853 3.28101 11.4675 3.67869L6.67689 8.58889L18.5151 8.15599C19.0629 8.13596 19.5198 8.56058 19.5398 9.10842L19.588 10.4265C19.6081 10.9744 19.1834 11.4312 18.6356 11.4512L6.7974 11.8841L11.9338 16.4313C12.3515 16.7996 12.3831 17.4378 12.0019 17.8436Z" fill="white" fill-opacity="0.78"/>
</svg>
