<svg width="27" height="27" viewBox="0 0 27 27" fill="none" xmlns="http://www.w3.org/2000/svg">
<path d="M12.5675 1.02009C9.51243 1.29525 6.78221 2.85552 5.01412 5.33194C4.59553 5.9229 4.13008 6.7859 3.86768 7.46129C3.75834 7.74583 3.74585 7.76459 3.58966 7.85839C2.86493 8.29302 2.31513 9.09973 2.15269 9.9596C1.80283 11.8013 3.17731 13.5617 5.0766 13.7024L5.35149 13.7211V10.5412V7.36436H5.21092H5.06723L5.25466 6.9954C6.10121 5.33819 7.55379 3.90612 9.2594 3.05251C10.6401 2.36149 11.8928 2.06757 13.4578 2.06444C14.2731 2.06444 14.6105 2.09571 15.3165 2.23641C18.0686 2.78673 20.4615 4.60027 21.7047 7.07357L21.8422 7.34872L21.7204 7.3581L21.5954 7.36748V10.5443V13.7211L21.8703 13.7024C22.9761 13.6211 24.007 12.9238 24.5131 11.9076C25.2128 10.5037 24.7317 8.7808 23.3854 7.88653L23.1604 7.73645L23.0449 7.43315C22.8824 7.01416 22.4513 6.16367 22.2045 5.76969C21.661 4.90357 20.7239 3.85609 19.9429 3.24012C18.4278 2.03943 16.666 1.30463 14.723 1.06074C14.2763 1.00446 13.0049 0.979443 12.5675 1.02009Z" fill="white" fill-opacity="0.78"/>
<path d="M21.6223 7.11476L21.5767 7.11819L21.4518 7.12756M21.6223 7.11476L21.4811 7.18528C21.4714 7.166 21.4616 7.14676 21.4518 7.12756M21.6223 7.11476L21.7047 7.07357L21.6223 7.11476ZM21.4518 7.12756C20.2354 4.75382 17.9236 3.01273 15.2676 2.48159M21.4518 7.12756L21.3454 7.13555V7.36748V10.5443V13.7211V13.9888L21.6124 13.9706L21.8873 13.9518L21.8886 13.9517C23.0844 13.8638 24.1923 13.1125 24.7368 12.019M15.2676 2.48159L24.7368 12.0191C24.7368 12.0191 24.7368 12.0191 24.7368 12.019M15.2676 2.48159C14.5797 2.34448 14.2588 2.31444 13.4578 2.31444C11.931 2.31755 10.7167 2.60274 9.37129 3.27607C7.71236 4.10633 6.29919 5.50034 5.47742 7.10886C5.47738 7.10895 5.47733 7.10904 5.47729 7.10912L5.47463 7.11436H5.60149V7.36436V10.5412V13.7211V13.9888L5.33447 13.9706L5.05958 13.9518L5.05958 13.9518L5.05813 13.9517C3.01426 13.8003 1.52862 11.9056 1.90706 9.91307C2.08214 8.98652 2.67222 8.11713 3.46094 7.64407C3.53396 7.60022 3.53845 7.59283 3.54074 7.58906C3.54093 7.58876 3.5411 7.58847 3.54129 7.58819C3.54596 7.58151 3.55503 7.56642 3.57117 7.52967C3.58741 7.49269 3.60663 7.44364 3.63431 7.37162L3.63465 7.37075C3.90455 6.67604 4.3798 5.79495 4.81011 5.18744L4.81066 5.18667C6.62133 2.65061 9.41775 1.05287 12.5448 0.771132C12.779 0.749401 13.2186 0.745912 13.6465 0.754112C14.0752 0.762326 14.5165 0.782742 14.7542 0.8127C16.7418 1.0622 18.5466 1.81462 20.098 3.04408C20.9019 3.67823 21.858 4.74716 22.4163 5.6368L22.4164 5.63698C22.671 6.04335 23.1094 6.90796 23.278 7.34278L23.2785 7.34412L23.3656 7.57281L23.5237 7.67828C23.5238 7.67834 23.5238 7.67839 23.5239 7.67845M15.2676 2.48159L23.5239 7.67845M24.7368 12.019C25.4951 10.4976 24.9707 8.63955 23.5239 7.67845M24.7368 12.019L23.5239 7.67845" stroke="white" stroke-opacity="0.78" stroke-width="0.5"/>
<path d="M12.8955 4.19679C9.78733 4.46882 7.24766 6.65445 6.58853 9.62178C6.48232 10.0971 6.44483 10.4879 6.44483 11.0695C6.44483 11.8699 6.54167 12.489 6.77596 13.1988C7.50693 15.4063 9.34062 17.123 11.6179 17.7296C12.1896 17.8828 12.605 17.9391 13.286 17.9547C14.2138 17.9766 14.9541 17.8671 15.7788 17.5857C18.0186 16.8165 19.743 14.9436 20.2959 12.6767C20.4833 11.8981 20.5364 10.9288 20.4271 10.1627C19.9835 7.00153 17.4376 4.56263 14.2294 4.22181C13.8421 4.18116 13.2173 4.16865 12.8955 4.19679ZM14.1419 5.34745C16.5504 5.62886 18.5372 7.33922 19.1307 9.64367C19.5087 11.1133 19.2744 12.7048 18.4903 13.993C17.2908 15.9567 15.0666 17.0323 12.755 16.7602C10.9994 16.557 9.45933 15.6033 8.49406 14.1275C7.6725 12.8705 7.38823 11.2696 7.7256 9.81564C8.11608 8.15531 9.34687 6.65445 10.9588 5.87901C11.9553 5.40061 13.0455 5.21925 14.1419 5.34745Z" fill="white" fill-opacity="0.78"/>
<path d="M12.8738 3.94774L12.8737 3.94774C9.6608 4.22894 7.02817 6.48995 6.34451 9.56741C6.23352 10.0641 6.19483 10.4738 6.19483 11.0695C6.19483 11.8949 6.29541 12.5406 6.53856 13.2772L6.53863 13.2774C7.29649 15.5661 9.19598 17.3431 11.5534 17.9711C12.1467 18.1301 12.5822 18.1886 13.2801 18.2046L12.8738 3.94774ZM12.8738 3.94774C13.2148 3.91792 13.8559 3.93124 14.2555 3.97317L14.2558 3.97321C17.5761 4.32593 20.2147 6.8512 20.6746 10.1277C20.7886 10.9268 20.7333 11.9279 20.5389 12.7352L20.5388 12.7359C19.9653 15.0872 18.1788 17.0258 15.86 17.8222L15.8596 17.8223M12.8738 3.94774L15.8596 17.8223M15.8596 17.8223C15.0053 18.1138 14.2355 18.2271 13.2803 18.2046L15.8596 17.8223ZM14.1129 5.59576L14.1129 5.59576C16.4214 5.86549 18.3215 7.50418 18.8886 9.70594C19.2499 11.1106 19.0255 12.6327 18.2768 13.8629C17.1287 15.7422 14.9999 16.7727 12.7842 16.512L12.7837 16.5119C11.102 16.3172 9.62803 15.4045 8.70333 13.9907C7.91898 12.7907 7.64728 11.2597 7.96905 9.87252C8.34142 8.28969 9.5198 6.84871 11.0671 6.10432L14.1129 5.59576ZM14.1129 5.59576C13.0634 5.47305 12.0209 5.64648 11.0671 6.10429L14.1129 5.59576Z" stroke="white" stroke-opacity="0.78" stroke-width="0.5"/>
<path d="M20.1085 17.6859C19.7274 18.0048 19.0963 18.4488 18.7027 18.677C15.6445 20.4499 11.8428 20.55 8.70961 18.9366C7.95052 18.5457 7.23829 18.0673 6.68849 17.5858C6.57603 17.4826 6.46358 17.4013 6.44483 17.4013C6.40422 17.4013 5.92628 17.664 5.58578 17.8703C4.07697 18.7896 2.82744 20.0997 2.05898 21.56C1.43109 22.7638 1.09371 24.0676 1.01874 25.581L1 26H13.4984H26V25.7999C26 25.4841 25.9406 24.8368 25.8719 24.3897C25.4408 21.6475 23.8477 19.3618 21.2986 17.8234C21.0925 17.6984 20.8238 17.5483 20.702 17.4857L20.4833 17.3763L20.1085 17.6859ZM20.9113 18.6864C21.6173 19.1117 22.6075 20.0122 23.1292 20.7001C24.1163 22.0008 24.6849 23.3829 24.7723 24.693L24.7911 24.9994H13.5234H2.25266L2.27452 24.865C2.43384 23.8206 2.64001 23.139 3.04611 22.3291C3.75834 20.9096 5.03599 19.54 6.33862 18.8084L6.46358 18.7365L6.81032 18.9741C8.16294 19.9121 9.58741 20.5031 11.1306 20.7751C12.4551 21.0096 13.9108 21.044 15.1135 20.8689C17.0065 20.5969 18.937 19.8183 20.2771 18.7865C20.4615 18.6458 20.6208 18.5301 20.6301 18.5301C20.6395 18.527 20.7676 18.5989 20.9113 18.6864Z" fill="white" fill-opacity="0.78"/>
<path d="M20.4294 18.9847C19.051 20.046 17.0791 20.839 15.1493 21.1164C13.9176 21.2957 12.4351 21.26 11.0872 21.0213C9.50727 20.7428 8.04939 20.1375 6.66843 19.1799C6.66823 19.1798 6.66804 19.1797 6.66785 19.1795L6.45187 19.0315C5.19896 19.7383 3.95941 21.0663 3.26956 22.4413C2.89706 23.1841 2.69849 23.8127 2.54582 24.7494H13.5234H24.5253L24.5229 24.7097C24.5229 24.7094 24.5229 24.7091 24.5228 24.7089C24.4392 23.4584 23.8946 22.1222 22.9301 20.8512L22.93 20.8511C22.4264 20.1871 21.4595 19.3085 20.7823 18.9006L20.7812 18.8999C20.7332 18.8707 20.6875 18.8436 20.6482 18.8209M20.4294 18.9847C20.4295 18.9847 20.4296 18.9846 20.4297 18.9846L20.2771 18.7865L20.4289 18.9852C20.429 18.985 20.4292 18.9849 20.4294 18.9847ZM20.4294 18.9847C20.5118 18.9219 20.5885 18.8645 20.6482 18.8209M20.6482 18.8209C20.6302 18.8104 20.6135 18.8009 20.5986 18.7926C20.5743 18.7791 20.5572 18.77 20.5473 18.7652C20.5447 18.7638 20.5435 18.7633 20.5435 18.7633C20.5435 18.7633 20.545 18.764 20.5476 18.765L20.5477 18.765C20.5496 18.7658 20.5588 18.7694 20.572 18.7727C20.5785 18.7744 20.5917 18.7775 20.6089 18.779C20.6145 18.7795 20.6217 18.78 20.6301 18.78C20.635 18.78 20.6403 18.7799 20.6459 18.7795C20.6527 18.7791 20.661 18.7783 20.6706 18.7768C20.6798 18.7753 20.687 18.7735 20.6916 18.7724C20.6984 18.7706 20.7044 18.7688 20.7092 18.7671C20.7129 18.7659 20.716 18.7648 20.7183 18.7638C20.7293 18.7597 20.7373 18.7557 20.7403 18.7541L20.7481 18.7499L20.7504 18.7485C20.7506 18.7484 20.7496 18.7491 20.7471 18.7507L20.7378 18.7569C20.7217 18.7679 20.6974 18.7851 20.6662 18.8078C20.6604 18.812 20.6544 18.8164 20.6482 18.8209ZM19.948 17.4941L19.9493 17.4931L20.3241 17.1835L20.4496 17.0799L20.5952 17.1527L20.8139 17.2622L20.8162 17.2633C20.9442 17.3291 21.2179 17.482 21.428 17.6095C24.0348 19.1828 25.6754 21.5299 26.1189 24.3509L26.119 24.3517C26.1889 24.8061 26.25 25.467 26.25 25.7999V26V26.25H26H13.4984H1H0.738567L0.75025 25.9888L0.768993 25.5698L0.76899 25.5698L0.769049 25.5686C0.845599 24.0234 1.19091 22.6837 1.83732 21.4443L1.83774 21.4435C2.62861 19.9407 3.91085 18.5981 5.4557 17.6568L5.4562 17.6565C5.62991 17.5513 5.83773 17.4322 6.00775 17.3391C6.09258 17.2927 6.16989 17.2517 6.22978 17.2219C6.25934 17.2071 6.28747 17.1937 6.31138 17.1834C6.32305 17.1784 6.33719 17.1726 6.35186 17.1676C6.35206 17.1675 6.35233 17.1674 6.35268 17.1673C6.35978 17.1648 6.39843 17.1513 6.44483 17.1513C6.48514 17.1513 6.51614 17.161 6.52777 17.1648C6.54292 17.1699 6.55537 17.1754 6.56361 17.1793C6.58019 17.1872 6.59515 17.196 6.60646 17.203C6.6299 17.2175 6.65562 17.2355 6.68105 17.2545C6.73205 17.2926 6.79389 17.3434 6.85531 17.3996C7.38766 17.8654 8.08167 18.3321 8.82405 18.7143L8.82406 18.7143C11.8811 20.2885 15.5925 20.1911 18.5774 18.4608C18.9578 18.2401 19.5772 17.8045 19.948 17.4941Z" stroke="white" stroke-opacity="0.78" stroke-width="0.5"/>
</svg>
