<svg width="21" height="24" viewBox="0 0 21 24" fill="none" xmlns="http://www.w3.org/2000/svg">
<path d="M13.7692 0.16827C13.5912 0.0581305 13.3859 -0.000141936 13.1766 8.21846e-06L13.7692 0.16827ZM13.7692 0.16827C13.9473 0.278409 14.091 0.436046 14.1844 0.623446L13.7692 0.16827ZM3.4918 21.8282C3.51169 22.1455 3.65175 22.4433 3.88348 22.661C4.11519 22.8787 4.42114 22.9999 4.73906 23L3.4918 21.8282ZM3.4918 21.8282C3.4918 21.8282 3.4918 21.8282 3.4918 21.8281M3.4918 21.8282L3.4918 21.8281M3.4918 21.8281L2.56449 7.00001H18.4355L17.5082 21.8281C17.5082 21.8282 17.5082 21.8282 17.5082 21.8282C17.4883 22.1455 17.3482 22.4433 17.1165 22.661C16.8848 22.8787 16.5789 22.9999 16.2609 23C16.2609 23 16.2609 23 16.2608 23M3.4918 21.8281L16.2608 23M16.2608 23H4.73919H16.2608ZM13.7315 1.94913L14.0084 2.50001H14.625H20V3.50001H1V2.50001H6.375H6.99156L7.26847 1.94913L7.70909 1.07257L7.70915 1.0726L7.71397 1.06273C7.72321 1.04385 7.73757 1.02795 7.75542 1.01686C7.77327 1.00576 7.79389 0.99992 7.81491 1V1.00001H7.81875L13.1766 1.00001L13.1773 1.00001C13.2005 0.999991 13.2233 1.00647 13.2431 1.0187C13.2629 1.03094 13.2789 1.04846 13.2893 1.06928L13.2909 1.07257L13.7315 1.94913Z" stroke="#06919A" stroke-width="2"/>
</svg>
