<svg width="32" height="29" viewBox="0 0 32 29" fill="none" xmlns="http://www.w3.org/2000/svg">
<path d="M22.099 19.5367L23.8569 17.7245C24.1315 17.4413 24.6094 17.6396 24.6094 18.0473V26.2816C24.
6094 27.7824 23.4284 29 21.9727 29H2.63672C1.18103 29 0 27.7824 0 26.2816V6.34707C0 4.84631 1.18103 3.
62872 2.63672 3.62872H17.6606C18.0506 3.62872 18.2483 4.11575 17.9737 4.40458L16.2159 6.21681C16.1335
 6.30176 16.0236 6.34707 15.9027 6.34707H2.63672V26.2816H21.9727V19.8539C21.9727 19.7349 22.0166 19.6217 
 22.099 19.5367ZM30.7014 8.10833L16.2763 22.98L11.3104 23.5463C9.87123 23.7105 8.64626 22.459 8.80556 
 20.9639L9.35488 15.8443L23.78 0.97266C25.0379 -0.32422 27.0704 -0.32422 28.3228 0.97266L30.6959 3.41918C31.9538
  4.71606 31.9538 6.81712 30.7014 8.10833ZM25.2741 9.85827L22.0826 6.56793L11.8762 17.0959L11.4752 20.794L15.0623
   20.3806L25.2741 9.85827ZM28.8337 5.34468L26.4606 2.89816C26.2354 2.66597 25.8674 2.66597 25.6476 2.89816L23.9502 
   4.6481L27.1418 7.93844L28.8392 6.1885C29.0589 5.95064 29.0589 5.57687 28.8337 5.34468Z" fill="#06919A"/>
</svg>
