<svg width="28" height="26" viewBox="0 0 28 26" fill="none" xmlns="http://www.w3.org/2000/svg">
<path d="M24.8976 2.66866C21.7744 0.042612 16.9492 0.437059 13.9611 3.47917C10.973 0.437059 6.1478 0.0372084 3.02464 2.66866C-1.03871 6.089 -0.444335 11.6653 2.45188 14.621L11.9294 24.2768C12.4698 24.828 13.1938 25.136 13.9611 25.136C14.7338 25.136 15.4524 24.8334 15.9928 24.2822L25.4703 14.6264C28.3611 11.6707 28.9663 6.09441 24.8976 2.66866ZM23.6224 12.8L14.1448 22.4559C14.0151 22.5856 13.9071 22.5856 13.7774 22.4559L4.29984 12.8C2.3276 10.79 1.92775 6.98597 4.69429 4.65711C6.79621 2.8902 10.0382 3.15496 12.0699 5.22446L13.9611 7.15347L15.8523 5.22446C17.8948 3.14416 21.1368 2.8902 23.2279 4.6517C25.989 6.98056 25.5784 10.8062 23.6224 12.8Z" fill="white" fill-opacity="0.78"/>
</svg>
