<svg width="98" height="76" viewBox="0 0 98 76" fill="none" xmlns="http://www.w3.org/2000/svg">
<path d="M36.6816 8.63162C35.5395 9.34364 35.0851 10.4189 35.2629 11.9932C35.304 12.3281 35.4757 12.9597 35.8845 14.2141C36.3681 15.7231 36.4414 16.0125 36.4284 16.2703L36.4036 16.5733L36.0123 16.6683C35.5617 16.7702 35.182 16.9776 34.4326 17.5393C33.0635 18.5631 32.0151 19.8791 31.2611 21.5104C30.8673 22.3662 30.7316 22.783 30.3693 24.3397C30.0627 25.6237 29.6773 26.9763 29.0484 28.9474L28.5847 30.4093L27.8005 31.2844C27.1555 32.0084 24.2414 35.0069 23.1994 36.0264L22.9187 36.302L23.6033 36.1051C24.7015 35.7985 26.6459 35.3072 26.8196 35.2947C26.9728 35.2825 26.9691 35.3112 26.7085 36.1959C26.1622 38.0699 26.0009 39.0433 26.0805 40.1383C26.1229 40.7328 26.1595 40.8775 26.6033 42.1539C27.0835 43.5545 27.1908 43.7842 27.8654 44.8777L28.2017 45.4316L28.9848 48.1166C29.4169 49.5956 29.849 51.0746 29.9372 51.4068L30.1065 52.0119L29.7573 51.8937C28.3199 51.4215 24.9063 51.6843 20.4726 52.5962C19.7894 52.7379 19.2161 52.8414 19.1954 52.8212C19.0167 52.6027 18.8317 52.5233 18.4013 52.4471C18.1185 52.4016 17.6387 52.3015 17.3228 52.2197C16.4099 51.9963 16.1388 52.0632 15.6845 52.6661C15.2641 53.2093 15.015 54.0284 14.3647 56.8833C13.9177 58.8459 13.8712 59.2044 13.9752 59.976C14.1381 61.1926 14.8976 62.5304 15.5672 62.763C15.9862 62.9049 16.1471 62.6983 16.2433 61.9118C16.3916 60.7239 17.2703 59.2546 18.7173 57.7657L19.2964 57.1673L19.721 57.1086C19.9518 57.0832 20.4924 56.9842 20.9124 56.8929C22.4195 56.581 23.9176 56.5188 27.3808 56.6152C31.2122 56.7274 33.1375 56.6534 33.9498 56.371C35.0735 55.9803 35.7327 53.978 35.8748 50.5675C35.9235 49.4279 35.8982 47.1502 35.8409 46.9853C35.7899 46.8388 35.9086 46.8454 36.117 46.992C36.571 47.3133 37.5531 48.4642 38.623 49.9267L39.2681 50.7977L39.0697 51.5855C38.6938 53.0442 38.5189 55.0218 38.4724 58.3923C38.4596 59.3004 38.4178 60.4992 38.3923 61.0557C38.3069 62.523 38.3148 63.2938 38.4215 63.9549C38.6086 65.1426 39.5652 67.8152 39.8321 67.8935C39.9532 67.9267 40.8421 67.5697 42.019 67.0167C43.4295 66.3483 45.538 65.5808 46.6392 65.3417C47.2366 65.2093 47.7398 65.0617 47.9939 64.9459C48.9636 64.5061 49.3524 63.7342 48.7956 63.3733C48.5586 63.223 48.3114 63.2405 47.5249 63.4593C46.7649 63.6756 45.8608 63.812 44.8574 63.8597C44.0258 63.9093 43.1517 63.8367 43.054 63.7132C42.9606 63.6019 42.8942 63.0568 42.8784 62.3025C42.8763 61.9815 42.8192 61.5221 42.763 61.2816C42.4646 60.0299 42.6387 57.991 43.2863 55.2466C43.4162 54.6949 43.7549 53.3654 44.0396 52.2944C44.6343 50.0476 44.8795 48.9218 44.8931 48.39C44.9272 47.0706 43.4113 45.1128 38.8272 40.5526C36.9754 38.7116 37.0672 38.8576 37.1502 37.8362C37.1789 37.525 37.1996 37.0728 37.1965 36.8275C37.2008 35.7375 37.4489 34.6792 37.9171 33.7223C38.2021 33.144 38.7404 32.3887 38.8991 32.3334C38.9541 32.3143 39.2016 32.3173 39.4514 32.3468C40.5427 32.4533 41.348 32.2691 44.3262 31.2267C45.6209 30.7765 46.7789 30.3465 46.9047 30.2753C47.1443 30.1373 47.1095 30.1357 47.8444 30.3593C48.0969 30.4358 48.2788 30.2699 48.4185 29.8448L48.5367 29.4957L50.8202 28.6605C52.0781 28.2026 53.1285 27.8374 53.1593 27.8472C53.184 27.8592 53.9884 29.0307 54.9412 30.4519C56.58 32.9009 60.1203 38.18 62.6015 41.8901C63.5543 43.3112 65.9468 46.9631 67.566 49.4738L67.9791 50.1105L67.8237 50.589C67.6311 51.1968 67.5727 51.7373 67.6305 52.4155C67.6886 53.1141 68.0714 54.0968 68.4831 54.6313C69.3545 55.7591 70.7394 56.4344 72.1541 56.408C72.6835 56.395 72.8508 56.3642 73.492 56.1413C74.5425 55.776 75.1641 55.2997 75.7741 54.3962C76.2335 53.7094 76.5132 52.7222 76.5037 51.8287C76.4834 50.5693 75.7451 49.1352 74.7317 48.406C74.6348 48.3439 74.554 48.2692 74.5477 48.2509C74.5413 48.2326 76.1289 47.66 78.0771 46.9826L81.6253 45.7488L81.5316 46.0894C81.3148 46.8836 81.3567 47.7521 81.6583 48.6193C81.9088 49.34 82.199 49.8004 82.7542 50.3535C83.1022 50.7048 83.3168 50.8493 83.8929 51.1282C84.6748 51.5066 85.1363 51.6131 85.9501 51.6108C86.4429 51.6106 86.5775 51.5843 87.2921 51.3358C87.9822 51.0959 88.1386 51.0141 88.5172 50.725C89.7443 49.7849 90.3785 48.3801 90.2788 46.8334C90.2425 46.2368 89.9276 45.2921 89.5915 44.7586C88.9321 43.7283 87.6723 42.9205 86.4721 42.7765C85.2699 42.6263 86.042 42.4058 76.995 45.5243C72.559 47.0599 68.9107 48.3011 68.8942 48.2931C68.8531 48.2732 65.8306 43.6561 65.8008 43.5706C65.7923 43.5462 70.9322 41.7315 77.2225 39.5442L88.6612 35.5668L88.6251 35.148C88.5175 33.7753 87.6871 23.1385 87.5614 21.4776C87.4736 20.3786 87.3925 19.4759 87.3842 19.4719C87.3781 19.474 80.5078 21.8835 72.119 24.8279C63.7363 27.7701 56.866 30.1796 56.8495 30.1716C56.8413 30.1677 56.168 29.1764 55.3591 27.9722L53.8873 25.7868L51.1876 26.705L48.484 27.6314L48.4004 27.4894C48.3524 27.4102 48.2812 27.2844 48.2353 27.2114C48.0492 26.8927 47.3503 26.9304 46.2205 27.3232C45.7808 27.4761 45.2051 27.7105 44.9409 27.8366C44.4168 28.101 44.015 28.186 43.1834 28.2355C41.804 28.3044 40.7314 27.897 40.3249 27.1416C40.2286 26.9629 40.2339 26.8994 40.4089 26.5168C41.1761 24.8056 41.1083 22.8782 40.1838 19.8454L40.058 19.4442L40.6518 18.3957C40.9737 17.8251 41.3083 17.2912 41.3932 17.2206C41.5611 17.0732 41.6774 17.0533 42.4158 17.0704C42.9455 17.0778 43.3342 16.9358 43.4842 16.6783C43.5923 16.497 43.5876 16.4438 43.4689 16.1223C43.363 15.8374 43.3495 15.7394 43.4214 15.6117C43.4952 15.4696 43.4862 15.4043 43.3792 15.1951C43.2805 14.9898 43.2736 14.9306 43.3408 14.9073C43.4751 14.8605 43.4844 14.6314 43.3676 14.2955L43.2636 13.9963L43.5796 13.9206C43.869 13.8474 43.8913 13.8328 43.9115 13.6546C43.9309 13.4151 43.7201 13.0845 43.2706 12.6384C42.9868 12.3537 42.9701 12.3253 43.0317 12.1875C43.1329 11.947 42.8799 11.1998 42.4851 10.5566C42.3014 10.2646 42.1652 10.0107 42.1671 9.99636C42.1751 9.9799 42.328 9.94726 42.5035 9.92045C42.679 9.89365 42.832 9.86101 42.8338 9.84667C42.8697 9.77259 42.4635 9.19505 42.159 8.89021C41.7113 8.42975 40.8328 8.00962 40.1589 7.92221C39.8843 7.88076 39.4038 7.87673 39.0912 7.90325C38.3518 7.96187 37.1866 8.31225 36.6816 8.63162ZM80.6595 23.816C80.6691 23.9222 80.7174 24.4941 80.764 25.1008C80.8168 25.7054 80.8879 26.6185 80.9293 27.1313C80.9706 27.644 81.0059 28.1588 81.0136 28.2794L81.0184 28.4899L80.4692 28.722C80.1641 28.8486 78.5869 29.4313 76.9566 30.0187L73.9869 31.0855L73.2012 28.8259L72.4154 26.5663L74.9924 25.6497C76.4071 25.1509 78.2594 24.4931 79.1041 24.1857L80.6388 23.6383L80.6595 23.816ZM85.8533 21.9005C85.866 21.9371 85.9575 23.0074 86.0578 24.2801L86.2349 26.6007L84.9652 27.0833C83.1604 27.7793 82.1933 28.1088 82.1678 28.0355C82.1402 27.9561 81.7803 23.3578 81.7957 23.284C81.813 23.1958 85.8257 21.8211 85.8533 21.9005ZM62.837 30.1844C62.9185 30.3204 63.5461 31.259 64.234 32.2726C64.9157 33.2883 65.4706 34.1358 65.4626 34.1523C65.4547 34.1688 64.3761 34.5712 63.0715 35.0522L60.7006 35.9314L60.3149 35.3536C58.4031 32.5134 57.8629 31.6881 57.8788 31.6552C57.8908 31.6305 58.9797 31.2382 60.2927 30.7816L62.6867 29.9491L62.837 30.1844ZM72.0997 29.202L72.8834 31.4556L71.7235 31.9C71.0825 32.1434 69.6681 32.6626 68.577 33.0488L66.6047 33.7552L65.2995 31.8131C64.5843 30.7406 63.9567 29.8019 63.8983 29.7127L63.8043 29.5605L67.5602 28.2545L71.3161 26.9485L72.0997 29.202ZM86.3408 27.8304C86.3389 27.8447 86.4559 29.3032 86.5892 31.0846L86.8375 34.3184L84.8163 35.0417C83.2266 35.6082 82.7948 35.7446 82.7736 35.6836C82.7587 35.6408 82.6378 34.1905 82.5052 32.4705L82.2583 29.3389L83.0965 29.0132C84.0182 28.6517 86.3344 27.812 86.3408 27.8304ZM81.1205 29.7483C81.1396 29.8032 81.6117 35.6495 81.6236 35.9397L81.6265 36.1646L79.0065 37.0756L76.3865 37.9866L75.3778 35.0857L74.3691 32.1848L74.6602 32.0768C74.9979 31.9457 79.1497 30.4198 80.3037 29.998C80.7413 29.839 81.112 29.7238 81.1205 29.7483ZM74.2786 35.468L75.2873 38.3689L73.0112 39.1466L70.7268 39.9204L69.0046 37.3498C67.9079 35.7117 67.3026 34.7584 67.339 34.7252C67.3714 34.7003 68.2322 34.3804 69.254 34.0114C70.2779 33.6485 71.5989 33.1755 72.1931 32.9552L73.2698 32.5671L74.2786 35.468ZM66.3629 35.4617C66.567 35.7535 69.336 39.8975 69.5258 40.1874L69.6198 40.3396L67.191 41.1704L64.754 41.9973L63.134 39.5828C62.2479 38.2548 61.4806 37.1114 61.4368 37.0445C61.3535 36.9229 61.3657 36.9186 62.0106 36.667C62.3688 36.5356 63.4495 36.1393 64.4123 35.7976L66.1608 35.176L66.3629 35.4617ZM72.3358 49.2528C73.2431 49.3617 74.0125 49.8814 74.45 50.6671C75.0216 51.7006 74.804 53.0632 73.9378 53.9189C73.6106 54.238 73.5477 54.2736 72.9187 54.4923C72.2835 54.7132 72.2182 54.7222 71.7615 54.6688C70.5675 54.5227 69.5432 53.585 69.3673 52.4688C69.2386 51.6852 69.403 50.9572 69.8329 50.3627C70.2368 49.8115 70.5571 49.5906 71.2496 49.3772C71.7729 49.2089 71.8913 49.1951 72.3358 49.2528ZM86.1175 44.4537C87.0001 44.5507 87.8067 45.0986 88.2484 45.8965C88.8051 46.8872 88.5796 48.2663 87.7277 49.1238C87.4128 49.4387 87.3499 49.4743 86.7208 49.693C86.0918 49.9117 86.0204 49.9229 85.5658 49.8756C83.6737 49.671 82.5582 47.6834 83.3788 45.9879C83.7453 45.2307 84.2004 44.8465 85.0456 44.58C85.5589 44.4221 85.6977 44.408 86.1175 44.4537Z" fill="#BED8DB"/>
</svg>
