<svg width="34" height="26" viewBox="0 0 34 26" fill="none" xmlns="http://www.w3.org/2000/svg">
<path d="M32.7742 13.232L32.7709 13.2293L27.9186 9.22958L27.6857 9.03766V8.73593V0.696506C27.6857 0.681449 27.6797 0.667008 27.6691 0.656361C27.6584 0.645717 27.644 0.639735 27.629 0.639735H24.3786C24.3635 0.639735 24.3491 0.645715 24.3384 0.656364C24.3278 0.66701 24.3218 0.681449 24.3218 0.696506V4.91095V6.26571L23.2756 5.40497L18.0791 1.12958L18.0791 1.12955C17.6949 0.813406 17.2128 0.640555 16.7153 0.640555C16.2177 0.640555 15.7357 0.813406 15.3515 1.12955L0.660336 13.2287C0.660272 13.2288 0.660209 13.2288 0.660146 13.2289C0.654485 13.2336 0.649795 13.2394 0.646341 13.2459C0.64285 13.2525 0.640691 13.2597 0.639988 13.2671C0.639285 13.2746 0.640051 13.282 0.642245 13.2892C0.644437 13.2963 0.648013 13.3029 0.652768 13.3087L0.653968 13.3101L2.13404 15.1094L2.13408 15.1095C2.13883 15.1153 2.14466 15.12 2.15125 15.1235L1.85925 15.6719L2.15125 15.1235C2.15784 15.127 2.16506 15.1292 2.17249 15.1299C2.17992 15.1307 2.18742 15.1299 2.19455 15.1277C2.20169 15.1255 2.20833 15.122 2.21409 15.1172L2.21475 15.1166L15.8674 3.87155L15.8727 3.86725L15.8727 3.86727C16.1122 3.67423 16.4105 3.56895 16.7182 3.56895C17.0258 3.56895 17.3242 3.67422 17.5637 3.86728L17.5689 3.87152L17.5689 3.87154L31.2222 15.1166L31.2233 15.1176C31.2291 15.1223 31.2357 15.1259 31.2428 15.1281C31.25 15.1303 31.2575 15.1311 31.2649 15.1304C31.2723 15.1297 31.2795 15.1275 31.2861 15.124C31.2926 15.1206 31.2983 15.1159 31.303 15.1103C31.3031 15.1102 31.3032 15.1101 31.3033 15.11L32.7822 13.3121L32.7742 13.232ZM32.7742 13.232C32.78 13.2367 32.7848 13.2425 32.7883 13.2491C32.7919 13.2557 32.7941 13.2629 32.7949 13.2704C32.7956 13.2778 32.7949 13.2853 32.7927 13.2925C32.7906 13.2995 32.7871 13.3061 32.7824 13.3119L32.7742 13.232ZM20.1416 25.0524V25.0504V19.4993C20.1416 19.0833 19.9764 18.6844 19.6822 18.3902C19.3881 18.0961 18.9892 17.9309 18.5732 17.9309H14.8585C14.4425 17.9309 14.0436 18.0961 13.7495 18.3902C13.4553 18.6844 13.2901 19.0833 13.2901 19.4993V25.0545C13.2901 25.1309 13.2599 25.2042 13.206 25.2583L13.6595 25.7095L13.206 25.2583C13.1522 25.3123 13.0793 25.3429 13.0031 25.3434C13.0029 25.3434 13.0028 25.3434 13.0026 25.3434L6.50159 25.3603C6.50138 25.3603 6.50117 25.3603 6.50095 25.3603C6.42455 25.3601 6.35132 25.3297 6.29728 25.2756C6.2431 25.2215 6.21265 25.148 6.21265 25.0713V15.8607L16.6769 7.24217C16.6887 7.23308 16.7032 7.22815 16.7182 7.22815C16.7331 7.22815 16.7477 7.2331 16.7595 7.2422L27.2214 15.8544V25.0713C27.2214 25.148 27.1909 25.2215 27.1368 25.2756C27.0827 25.3296 27.0096 25.3601 26.9332 25.3603C26.9329 25.3603 26.9327 25.3603 26.9324 25.3603L20.4323 25.3423H20.4306C20.3925 25.3423 20.3549 25.3348 20.3198 25.3202C20.2847 25.3056 20.2528 25.2843 20.2259 25.2573C20.1991 25.2304 20.1778 25.1984 20.1633 25.1633C20.1489 25.1281 20.1415 25.0905 20.1416 25.0524Z" stroke="white" stroke-opacity="0.78" stroke-width="1.27947"/>
</svg>
