<svg width="29" height="25" viewBox="0 0 29 25" fill="none" xmlns="http://www.w3.org/2000/svg">
<path d="M4.45 19.2308H0.89C0.653957 19.2308 0.427582 19.3321 0.260675 19.5124C0.0937676 19.6927 0 19.9373 0 20.1923L0 24.0385C0 24.2935 0.0937676 24.538 0.260675 24.7184C0.427582 24.8987 0.653957 25 0.89 25H4.45C4.68604 25 4.91242 24.8987 5.07932 24.7184C5.24623 24.538 5.34 24.2935 5.34 24.0385V20.1923C5.34 19.9373 5.24623 19.6927 5.07932 19.5124C4.91242 19.3321 4.68604 19.2308 4.45 19.2308ZM4.45 0H0.89C0.653957 0 0.427582 0.101305 0.260675 0.281628C0.0937676 0.461951 0 0.706523 0 0.961538L0 4.80769C0 5.06271 0.0937676 5.30728 0.260675 5.4876C0.427582 5.66793 0.653957 5.76923 0.89 5.76923H4.45C4.68604 5.76923 4.91242 5.66793 5.07932 5.4876C5.24623 5.30728 5.34 5.06271 5.34 4.80769V0.961538C5.34 0.706523 5.24623 0.461951 5.07932 0.281628C4.91242 0.101305 4.68604 0 4.45 0ZM4.45 9.61538H0.89C0.653957 9.61538 0.427582 9.71669 0.260675 9.89701C0.0937676 10.0773 0 10.3219 0 10.5769L0 14.4231C0 14.6781 0.0937676 14.9227 0.260675 15.103C0.427582 15.2833 0.653957 15.3846 0.89 15.3846H4.45C4.68604 15.3846 4.91242 15.2833 5.07932 15.103C5.24623 14.9227 5.34 14.6781 5.34 14.4231V10.5769C5.34 10.3219 5.24623 10.0773 5.07932 9.89701C4.91242 9.71669 4.68604 9.61538 4.45 9.61538ZM27.59 20.1923H9.79C9.55396 20.1923 9.32758 20.2936 9.16067 20.4739C8.99377 20.6543 8.9 20.8988 8.9 21.1538V23.0769C8.9 23.3319 8.99377 23.5765 9.16067 23.7568C9.32758 23.9372 9.55396 24.0385 9.79 24.0385H27.59C27.826 24.0385 28.0524 23.9372 28.2193 23.7568C28.3862 23.5765 28.48 23.3319 28.48 23.0769V21.1538C28.48 20.8988 28.3862 20.6543 28.2193 20.4739C28.0524 20.2936 27.826 20.1923 27.59 20.1923ZM27.59 0.961538H9.79C9.55396 0.961538 9.32758 1.06284 9.16067 1.24317C8.99377 1.42349 8.9 1.66806 8.9 1.92308V3.84615C8.9 4.10117 8.99377 4.34574 9.16067 4.52606C9.32758 4.70639 9.55396 4.80769 9.79 4.80769H27.59C27.826 4.80769 28.0524 4.70639 28.2193 4.52606C28.3862 4.34574 28.48 4.10117 28.48 3.84615V1.92308C28.48 1.66806 28.3862 1.42349 28.2193 1.24317C28.0524 1.06284 27.826 0.961538 27.59 0.961538ZM27.59 10.5769H9.79C9.55396 10.5769 9.32758 10.6782 9.16067 10.8586C8.99377 11.0389 8.9 11.2834 8.9 11.5385V13.4615C8.9 13.7166 8.99377 13.9611 9.16067 14.1414C9.32758 14.3218 9.55396 14.4231 9.79 14.4231H27.59C27.826 14.4231 28.0524 14.3218 28.2193 14.1414C28.3862 13.9611 28.48 13.7166 28.48 13.4615V11.5385C28.48 11.2834 28.3862 11.0389 28.2193 10.8586C28.0524 10.6782 27.826 10.5769 27.59 10.5769Z" fill="#06919A"/>
</svg>
