<svg width="72" height="69" viewBox="0 0 52 49" fill="none" xmlns="http://www.w3.org/2000/svg">
<mask id="mask0_141_2" style="mask-type:luminance" maskUnits="userSpaceOnUse" x="13" y="0" width="26" height="33">
<path d="M13.0607 0H38.647V32.4049H13.0607V0Z" fill="white"/>
</mask>
<g mask="url(#mask0_141_2)">
<path d="M38.5676 30.3996L36.1163 8.85197C36.0158 8.00606 35.3035 7.36811 34.4506 7.36811H31.731V5.98571C31.731 2.75678 29.0988 0.12561 25.8679 0.12561C22.6379 0.12561 20.0048 2.75678 20.0048 5.98571V7.36811H17.2852C16.4322 7.36811 15.7139 8.00606 15.6195 8.85197L14.9755 14.5041C15.9822 14.6719 16.9496 15.1551 17.7152 15.9136L18.4676 16.6651L19.2191 15.9136C20.9923 14.1414 23.9068 13.8792 25.7674 15.558C27.7556 17.3432 27.8159 20.3974 25.9553 22.264C25.9553 22.264 20.267 27.9493 20.1062 28.11C19.199 29.0162 17.7353 29.0162 16.8351 28.11C15.6938 26.9688 14.7263 26.0023 13.7729 25.0489L13.1621 30.3996C13.0476 31.4334 13.8533 32.3326 14.8881 32.3326H36.8416C37.8824 32.3326 38.6892 31.4334 38.5676 30.3996ZM20.7502 10.6171C20.3413 10.6171 20.0048 10.2816 20.0048 9.86566C20.0048 9.45576 20.3413 9.12021 20.7502 9.12021C21.1671 9.12021 21.5027 9.45576 21.5027 9.86566C21.5027 10.2816 21.1671 10.6171 20.7502 10.6171ZM21.5027 7.36811V5.98571C21.5027 3.5826 23.4567 1.62253 25.8679 1.62253C28.272 1.62253 30.2331 3.5826 30.2331 5.98571V7.36811H21.5027ZM30.9785 10.6171C30.5696 10.6171 30.2331 10.2816 30.2331 9.86566C30.2331 9.45576 30.5696 9.12021 30.9785 9.12021C31.3954 9.12021 31.731 9.45576 31.731 9.86566C31.731 10.2816 31.3954 10.6171 30.9785 10.6171Z" fill="#F50D0D" fill-opacity="0.81"/>
</g>
<path d="M5.86863 42.9642C5.13424 42.9642 4.54451 42.7753 4.10046 42.3975C3.6554 42.0198 3.42734 41.4733 3.4173 40.7579H4.92427C4.94235 41.415 5.2548 41.7425 5.8606 41.7425C6.1198 41.7425 6.31671 41.6903 6.45133 41.5858C6.58495 41.4813 6.65226 41.3396 6.65226 41.1598C6.65226 41.0212 6.60404 40.9026 6.50759 40.8062C6.41315 40.7097 6.29461 40.6314 6.14994 40.5691C6.00728 40.5078 5.80032 40.4314 5.52706 40.34C5.11917 40.2064 4.78764 40.0748 4.53045 39.9462C4.27527 39.8176 4.05324 39.6267 3.86336 39.3715C3.67549 39.1143 3.58206 38.7828 3.58206 38.3749C3.58206 38.0374 3.67549 37.738 3.86336 37.4748C4.05324 37.2095 4.31847 37.0036 4.65904 36.8559C4.99861 36.7062 5.38741 36.6309 5.82443 36.6309C6.22026 36.6309 6.59198 36.7062 6.93758 36.8559C7.28318 37.0036 7.56448 37.2326 7.78148 37.5431C8.00049 37.8545 8.11302 38.2423 8.11904 38.7085H6.63618C6.63016 38.4463 6.56084 38.2383 6.42722 38.0856C6.2926 37.9309 6.09167 37.8525 5.82443 37.8525C5.60944 37.8525 5.44066 37.9037 5.31809 38.0052C5.19753 38.1077 5.13725 38.2423 5.13725 38.4111C5.13725 38.61 5.22566 38.7607 5.40248 38.8652C5.5793 38.9697 5.85859 39.0842 6.24236 39.2068C6.64925 39.3384 6.98379 39.47 7.24701 39.6006C7.50922 39.7322 7.73426 39.9281 7.92213 40.1873C8.11201 40.4445 8.20745 40.7811 8.20745 41.196C8.20745 41.5205 8.11502 41.8168 7.93017 42.0841C7.74732 42.3523 7.48009 42.5663 7.12645 42.7271C6.77483 42.8848 6.35589 42.9642 5.86863 42.9642Z" fill="white" fill-opacity="0.9"/>
<path d="M11.3538 38.2021C11.7094 38.2021 12.0259 38.2855 12.3021 38.4513C12.5774 38.618 12.7934 38.8471 12.9491 39.1384C13.1069 39.4278 13.1862 39.7593 13.1862 40.131V42.8516H11.7315V40.4445C11.7315 40.1581 11.6632 39.9321 11.5266 39.7653C11.3899 39.5966 11.195 39.5122 10.9439 39.5122C10.6997 39.5122 10.4998 39.5986 10.3451 39.7694C10.1924 39.9411 10.116 40.1662 10.116 40.4445V42.8516H8.65729V36.5706H10.116V38.6562C10.4586 38.3538 10.8715 38.2021 11.3538 38.2021Z" fill="white" fill-opacity="0.9"/>
<path d="M16.0722 42.9642C15.6432 42.9642 15.2343 42.8677 14.8465 42.6748C14.4607 42.4799 14.1493 42.2027 13.9142 41.843C13.6781 41.4813 13.5605 41.0624 13.5605 40.5852C13.5605 40.109 13.6781 39.689 13.9142 39.3274C14.1493 38.9657 14.4607 38.6884 14.8465 38.4955C15.2343 38.3006 15.6432 38.2021 16.0722 38.2021C16.5032 38.2021 16.912 38.3006 17.2978 38.4955C17.6856 38.6884 17.9981 38.9657 18.2342 39.3274C18.4692 39.689 18.5878 40.109 18.5878 40.5852C18.5878 41.0624 18.4692 41.4813 18.2342 41.843C17.9981 42.2027 17.6856 42.4799 17.2978 42.6748C16.912 42.8677 16.5032 42.9642 16.0722 42.9642ZM16.0722 41.6581C16.3746 41.6581 16.6267 41.5567 16.8277 41.3527C17.0286 41.1498 17.1291 40.8936 17.1291 40.5852C17.1291 40.2747 17.0286 40.0185 16.8277 39.8176C16.6267 39.6147 16.3746 39.5122 16.0722 39.5122C15.7688 39.5122 15.5176 39.6147 15.3167 39.8176C15.1177 40.0185 15.0193 40.2747 15.0193 40.5852C15.0193 40.8936 15.1177 41.1498 15.3167 41.3527C15.5176 41.5567 15.7688 41.6581 16.0722 41.6581Z" fill="white" fill-opacity="0.9"/>
<path d="M21.75 38.2021C22.1358 38.2021 22.5025 38.3006 22.8511 38.4955C23.1987 38.6884 23.48 38.9677 23.695 39.3314C23.912 39.6961 24.0205 40.114 24.0205 40.5852C24.0205 41.0543 23.912 41.4713 23.695 41.835C23.48 42.1996 23.1987 42.4799 22.8511 42.6748C22.5025 42.8677 22.1358 42.9642 21.75 42.9642C21.2276 42.9642 20.7976 42.8135 20.46 42.5101V44.5957H19.0053V38.3147H20.3556V38.7607C20.6981 38.389 21.1633 38.2021 21.75 38.2021ZM21.4808 41.6581C21.7942 41.6581 22.0524 41.5567 22.2563 41.3527C22.4593 41.1498 22.5618 40.8936 22.5618 40.5852C22.5618 40.2747 22.4593 40.0185 22.2563 39.8176C22.0524 39.6147 21.7942 39.5122 21.4808 39.5122C21.1673 39.5122 20.9081 39.6147 20.7052 39.8176C20.5012 40.0185 20.3998 40.2747 20.3998 40.5852C20.3998 40.8936 20.5012 41.1498 20.7052 41.3527C20.9081 41.5567 21.1673 41.6581 21.4808 41.6581Z" fill="white" fill-opacity="0.9"/>
<path d="M26.6014 42.9642C25.867 42.9642 25.2772 42.7753 24.8332 42.3975C24.3881 42.0198 24.1601 41.4733 24.15 40.7579H25.657C25.6751 41.415 25.9875 41.7425 26.5933 41.7425C26.8525 41.7425 27.0494 41.6903 27.1841 41.5858C27.3177 41.4813 27.385 41.3396 27.385 41.1598C27.385 41.0212 27.3368 40.9026 27.2403 40.8062C27.1459 40.7097 27.0273 40.6314 26.8827 40.5691C26.74 40.5078 26.533 40.4314 26.2598 40.34C25.8519 40.2064 25.5204 40.0748 25.2632 39.9462C25.008 39.8176 24.786 39.6267 24.5961 39.3715C24.4082 39.1143 24.3148 38.7828 24.3148 38.3749C24.3148 38.0374 24.4082 37.738 24.5961 37.4748C24.786 37.2095 25.0512 37.0036 25.3918 36.8559C25.7313 36.7062 26.1201 36.6309 26.5572 36.6309C26.953 36.6309 27.3247 36.7062 27.6703 36.8559C28.0159 37.0036 28.2972 37.2326 28.5142 37.5431C28.7332 37.8545 28.8457 38.2423 28.8518 38.7085H27.3689C27.3629 38.4463 27.2936 38.2383 27.1599 38.0856C27.0253 37.9309 26.8244 37.8525 26.5572 37.8525C26.3422 37.8525 26.1734 37.9037 26.0508 38.0052C25.9303 38.1077 25.87 38.2423 25.87 38.4111C25.87 38.61 25.9584 38.7607 26.1352 38.8652C26.312 38.9697 26.5913 39.0842 26.9751 39.2068C27.382 39.3384 27.7165 39.47 27.9797 39.6006C28.2419 39.7322 28.467 39.9281 28.6549 40.1873C28.8447 40.4445 28.9402 40.7811 28.9402 41.196C28.9402 41.5205 28.8478 41.8168 28.6629 42.0841C28.4801 42.3523 28.2128 42.5663 27.8592 42.7271C27.5076 42.8848 27.0886 42.9642 26.6014 42.9642Z" fill="white" fill-opacity="0.9"/>
<path d="M34.7751 38.2021C35.1127 38.2021 35.4071 38.2815 35.6592 38.4392C35.9134 38.595 36.1103 38.816 36.2499 39.1023C36.3886 39.3866 36.4589 39.7151 36.4589 40.0869V42.8517H35.0002V40.3481C35.0002 40.0859 34.9399 39.8809 34.8193 39.7332C34.7008 39.5866 34.54 39.5122 34.3371 39.5122C34.1412 39.5122 33.9754 39.5876 33.8388 39.7372C33.7022 39.8879 33.6338 40.0909 33.6338 40.3481V42.8517H32.1751V40.3481C32.1751 40.0859 32.1148 39.8809 31.9943 39.7332C31.8757 39.5866 31.715 39.5122 31.512 39.5122C31.3131 39.5122 31.1463 39.5876 31.0097 39.7372C30.8731 39.8879 30.8048 40.0909 30.8048 40.3481V42.8517H29.35V38.3147H30.6561V38.7929C30.9987 38.3991 31.4297 38.2021 31.9501 38.2021C32.2283 38.2021 32.4886 38.2695 32.7297 38.4031C32.9708 38.5377 33.1576 38.7165 33.2923 38.9416C33.6941 38.4493 34.1884 38.2021 34.7751 38.2021Z" fill="white" fill-opacity="0.9"/>
<path d="M40.5206 38.3147H41.8748V42.8517H40.5206V42.4056C40.177 42.7783 39.7128 42.9642 39.1261 42.9642C38.7423 42.9642 38.3756 42.8677 38.025 42.6748C37.6764 42.4799 37.3951 42.1996 37.1811 41.835C36.9661 41.4713 36.8596 41.0543 36.8596 40.5852C36.8596 40.114 36.9661 39.6961 37.1811 39.3314C37.3951 38.9677 37.6764 38.6884 38.025 38.4955C38.3756 38.3006 38.7423 38.2021 39.1261 38.2021C39.7128 38.2021 40.177 38.389 40.5206 38.7607V38.3147ZM39.3953 41.6581C39.7108 41.6581 39.971 41.5567 40.175 41.3527C40.3779 41.1498 40.4804 40.8936 40.4804 40.5852C40.4804 40.2747 40.3779 40.0185 40.175 39.8176C39.971 39.6147 39.7108 39.5122 39.3953 39.5122C39.0819 39.5122 38.8227 39.6147 38.6198 39.8176C38.4158 40.0185 38.3143 40.2747 38.3143 40.5852C38.3143 40.8936 38.4158 41.1498 38.6198 41.3527C38.8227 41.5567 39.0819 41.6581 39.3953 41.6581Z" fill="white" fill-opacity="0.9"/>
<path d="M45.6753 38.2544V39.5645H45.0927C44.7953 39.5645 44.5431 39.6649 44.3372 39.8658C44.1302 40.0648 44.0277 40.3179 44.0277 40.6254V42.8517H42.573V38.3147H43.9232V38.8049C44.2849 38.4382 44.7491 38.2544 45.3177 38.2544H45.6753Z" fill="white" fill-opacity="0.9"/>
<path d="M48.5202 38.4874H47.4834V40.8543C47.4834 41.0693 47.5417 41.2381 47.6602 41.3607C47.7808 41.4812 47.9475 41.5415 48.1625 41.5415H48.5202V42.8516H47.7165C47.175 42.8516 46.757 42.7009 46.4627 42.3975C46.1703 42.0951 46.0246 41.6761 46.0246 41.1397V38.4874H45.2852V38.3146H46.0246V37.109H47.4834V38.3146H48.5202V38.4874Z" fill="white" fill-opacity="0.9"/>
<path d="M1.46678 46.8028C1.6004 46.9475 1.66771 47.1263 1.66771 47.3373C1.66771 47.5493 1.6004 47.7291 1.46678 47.8758C1.33518 48.0204 1.16639 48.0928 0.960442 48.0928C0.769559 48.0928 0.612834 48.0345 0.490268 47.916V48.7759H0V46.622H0.486249V46.7867H0.490268C0.612834 46.6501 0.769559 46.5818 0.960442 46.5818C1.16639 46.5818 1.33518 46.6561 1.46678 46.8028ZM1.04885 47.5824C1.11315 47.5181 1.1453 47.4367 1.1453 47.3373C1.1453 47.2388 1.11415 47.1585 1.05287 47.0962C0.990581 47.0349 0.91021 47.0037 0.811754 47.0037C0.715308 47.0037 0.634937 47.0359 0.570639 47.1002C0.508351 47.1625 0.478212 47.2408 0.478212 47.3373C0.478212 47.4367 0.51036 47.5181 0.574658 47.5824C0.638955 47.6447 0.717318 47.6748 0.811754 47.6748C0.905187 47.6748 0.984554 47.6447 1.04885 47.5824Z" fill="white" fill-opacity="0.82"/>
<path d="M3.47275 47.8838C3.31402 47.7422 3.23566 47.5613 3.23566 47.3413C3.23566 47.1193 3.31703 46.9374 3.48079 46.7948C3.64656 46.6531 3.8515 46.5818 4.09563 46.5818C4.33374 46.5818 4.53466 46.6541 4.69842 46.7988C4.86419 46.9415 4.94757 47.1223 4.94757 47.3413C4.94757 47.5583 4.8672 47.7381 4.70646 47.8798C4.54572 48.0224 4.34177 48.0928 4.09563 48.0928C3.83844 48.0928 3.63048 48.0235 3.47275 47.8838ZM3.85452 47.1002C3.79022 47.1625 3.75807 47.2428 3.75807 47.3413C3.75807 47.4377 3.78821 47.5181 3.8505 47.5824C3.91178 47.6447 3.99216 47.6748 4.09162 47.6748C4.18806 47.6748 4.26642 47.6447 4.32871 47.5824C4.39301 47.5181 4.42516 47.4377 4.42516 47.3413C4.42516 47.2428 4.39301 47.1625 4.32871 47.1002C4.26441 47.0359 4.18505 47.0037 4.09162 47.0037C3.99718 47.0037 3.91882 47.0359 3.85452 47.1002Z" fill="white" fill-opacity="0.82"/>
<path d="M7.49495 48.0526H7.16141L6.39386 46.6219H6.9645L7.3101 47.3935L7.65168 46.6219H7.99326L8.33484 47.3935L8.68445 46.6219H9.25107L8.48754 48.0526H8.14998L7.82448 47.3131L7.49495 48.0526Z" fill="white" fill-opacity="0.82"/>
<path d="M12.2456 47.4056H11.2088C11.2088 47.5081 11.241 47.5824 11.3053 47.6306C11.3716 47.6789 11.4429 47.703 11.5183 47.703C11.5986 47.703 11.6609 47.6929 11.7072 47.6708C11.7554 47.6497 11.8086 47.6065 11.8679 47.5422L12.2255 47.7231C12.0749 47.9702 11.8277 48.0928 11.4821 48.0928C11.2671 48.0928 11.0823 48.0194 10.9275 47.8718C10.7748 47.7251 10.6985 47.5483 10.6985 47.3413C10.6985 47.1323 10.7748 46.9545 10.9275 46.8068C11.0823 46.6571 11.2671 46.5818 11.4821 46.5818C11.7092 46.5818 11.894 46.6481 12.0367 46.7787C12.1783 46.9103 12.2497 47.0982 12.2497 47.3413C12.2497 47.3734 12.2477 47.3956 12.2456 47.4056ZM11.2249 47.1323H11.7674C11.7564 47.06 11.7272 47.0037 11.679 46.9636C11.6328 46.9234 11.5725 46.9033 11.4982 46.9033C11.4148 46.9033 11.3495 46.9254 11.3013 46.9676C11.2531 47.0108 11.2269 47.066 11.2249 47.1323Z" fill="white" fill-opacity="0.82"/>
<path d="M13.9203 48.0526V46.622H14.4106V46.8309H14.4186C14.4206 46.8229 14.4266 46.8139 14.4347 46.8028C14.4427 46.7928 14.4598 46.7737 14.4869 46.7465C14.516 46.7174 14.5472 46.6923 14.5793 46.6702C14.6115 46.6461 14.6517 46.626 14.6999 46.6099C14.7501 46.5918 14.8014 46.5818 14.8526 46.5818C14.9089 46.5818 14.9621 46.5898 15.0133 46.6059C15.0636 46.62 15.1018 46.634 15.1259 46.6501L15.166 46.6702L14.9611 47.0881C14.8988 47.0379 14.8134 47.0118 14.7039 47.0118C14.6446 47.0118 14.5934 47.0258 14.5512 47.052C14.508 47.0761 14.4769 47.1072 14.4588 47.1444C14.4427 47.1826 14.4306 47.2147 14.4226 47.2408C14.4146 47.2649 14.4106 47.285 14.4106 47.3011V48.0526H13.9203Z" fill="white" fill-opacity="0.82"/>
<path d="M18.188 47.4056H17.1512C17.1512 47.5081 17.1834 47.5824 17.2477 47.6306C17.314 47.6789 17.3853 47.703 17.4607 47.703C17.541 47.703 17.6033 47.6929 17.6495 47.6708C17.6978 47.6497 17.751 47.6065 17.8103 47.5422L18.1679 47.7231C18.0172 47.9702 17.7701 48.0928 17.4245 48.0928C17.2095 48.0928 17.0246 48.0194 16.8699 47.8718C16.7172 47.7251 16.6409 47.5483 16.6409 47.3413C16.6409 47.1323 16.7172 46.9545 16.8699 46.8068C17.0246 46.6571 17.2095 46.5818 17.4245 46.5818C17.6515 46.5818 17.8364 46.6481 17.9791 46.7787C18.1207 46.9103 18.192 47.0982 18.192 47.3413C18.192 47.3734 18.19 47.3956 18.188 47.4056ZM17.1673 47.1323H17.7098C17.6988 47.06 17.6696 47.0037 17.6214 46.9636C17.5752 46.9234 17.5149 46.9033 17.4406 46.9033C17.3572 46.9033 17.2919 46.9254 17.2437 46.9676C17.1954 47.0108 17.1693 47.066 17.1673 47.1323Z" fill="white" fill-opacity="0.82"/>
<path d="M19.959 47.8757C19.8244 47.7311 19.7581 47.5532 19.7581 47.3413C19.7581 47.1303 19.8244 46.9505 19.959 46.8028C20.0927 46.6561 20.2625 46.5817 20.4694 46.5817C20.6563 46.5817 20.812 46.641 20.9356 46.7586V45.6575H21.4298V48.0525H20.9396V47.8918H20.9356C20.812 48.0264 20.6563 48.0927 20.4694 48.0927C20.2625 48.0927 20.0927 48.0204 19.959 47.8757ZM20.377 47.1001C20.3127 47.1624 20.2805 47.2428 20.2805 47.3413C20.2805 47.4377 20.3107 47.5181 20.373 47.5824C20.4342 47.6447 20.5146 47.6748 20.6141 47.6748C20.7105 47.6748 20.7889 47.6447 20.8512 47.5824C20.9155 47.5181 20.9476 47.4377 20.9476 47.3413C20.9476 47.2428 20.9155 47.1624 20.8512 47.1001C20.7869 47.0358 20.7075 47.0037 20.6141 47.0037C20.5196 47.0037 20.4413 47.0358 20.377 47.1001Z" fill="white" fill-opacity="0.82"/>
<path d="M26.868 46.8028C27.0016 46.9505 27.0689 47.1303 27.0689 47.3413C27.0689 47.5532 27.0016 47.7311 26.868 47.8757C26.7364 48.0204 26.5676 48.0927 26.3616 48.0927C26.1707 48.0927 26.014 48.0264 25.8915 47.8918H25.8874V48.0525H25.4012V45.6575H25.8915V46.7586C26.014 46.641 26.1707 46.5817 26.3616 46.5817C26.5676 46.5817 26.7364 46.6561 26.868 46.8028ZM26.4541 47.5824C26.5153 47.5181 26.5465 47.4377 26.5465 47.3413C26.5465 47.2428 26.5143 47.1624 26.45 47.1001C26.3857 47.0358 26.3064 47.0037 26.2129 47.0037C26.1185 47.0037 26.0401 47.0358 25.9758 47.1001C25.9115 47.1624 25.8794 47.2428 25.8794 47.3413C25.8794 47.4377 25.9095 47.5181 25.9718 47.5824C26.0361 47.6447 26.1165 47.6748 26.2129 47.6748C26.3114 47.6748 26.3918 47.6447 26.4541 47.5824Z" fill="white" fill-opacity="0.82"/>
<path d="M29.8223 46.6219H30.3929L29.2677 48.7759H28.7011L29.1954 47.8315L28.5162 46.6219H29.0869L29.4847 47.3573L29.8223 46.6219Z" fill="white" fill-opacity="0.82"/>
<path d="M34.9001 46.9877C34.8057 46.9877 34.7253 47.0228 34.659 47.0921C34.5917 47.1595 34.5585 47.2408 34.5585 47.3373C34.5585 47.4367 34.5917 47.5211 34.659 47.5905C34.7253 47.6578 34.8057 47.6909 34.9001 47.6909C34.9423 47.6909 34.9845 47.6859 35.0247 47.6748C35.0649 47.6648 35.094 47.6527 35.1131 47.6387L35.1372 47.6226L35.306 47.9682C35.2919 47.9762 35.2739 47.9873 35.2497 48.0003C35.2276 48.0144 35.1754 48.0325 35.093 48.0566C35.0096 48.0807 34.9212 48.0928 34.8278 48.0928C34.6158 48.0928 34.431 48.0194 34.2732 47.8718C34.1145 47.7251 34.0361 47.5483 34.0361 47.3413C34.0361 47.1353 34.1145 46.9575 34.2732 46.8068C34.431 46.6571 34.6158 46.5818 34.8278 46.5818C34.9212 46.5818 35.0086 46.5938 35.089 46.618C35.1694 46.6401 35.2256 46.6612 35.2578 46.6823L35.306 46.7144L35.1372 47.052C35.0749 47.0098 34.9966 46.9877 34.9001 46.9877Z" fill="white" fill-opacity="0.82"/>
<path d="M37.0785 47.8838C36.9198 47.7422 36.8414 47.5613 36.8414 47.3413C36.8414 47.1193 36.9228 46.9374 37.0866 46.7948C37.2523 46.6531 37.4573 46.5818 37.7014 46.5818C37.9395 46.5818 38.1404 46.6541 38.3042 46.7988C38.47 46.9415 38.5533 47.1223 38.5533 47.3413C38.5533 47.5583 38.473 47.7381 38.3122 47.8798C38.1515 48.0224 37.9475 48.0928 37.7014 48.0928C37.4442 48.0928 37.2363 48.0235 37.0785 47.8838ZM37.4603 47.1002C37.396 47.1625 37.3638 47.2428 37.3638 47.3413C37.3638 47.4377 37.394 47.5181 37.4563 47.5824C37.5176 47.6447 37.5979 47.6748 37.6974 47.6748C37.7938 47.6748 37.8722 47.6447 37.9345 47.5824C37.9988 47.5181 38.0309 47.4377 38.0309 47.3413C38.0309 47.2428 37.9988 47.1625 37.9345 47.1002C37.8702 47.0359 37.7908 47.0037 37.6974 47.0037C37.603 47.0037 37.5246 47.0359 37.4603 47.1002Z" fill="white" fill-opacity="0.82"/>
<path d="M40.225 48.0526V46.622H40.7152V46.7747H40.7233C40.8489 46.6461 40.9845 46.5818 41.1292 46.5818C41.2336 46.5818 41.3311 46.6039 41.4225 46.6461C41.5129 46.6893 41.5833 46.7546 41.6315 46.843C41.7761 46.6692 41.9329 46.5818 42.1017 46.5818C42.2544 46.5818 42.385 46.625 42.4955 46.7104C42.605 46.7968 42.6602 46.9304 42.6602 47.1122V48.0526H42.166V47.2449C42.166 47.1705 42.1439 47.1072 42.1017 47.056C42.0615 47.0057 41.9992 46.9796 41.9168 46.9796C41.8445 46.9796 41.7882 47.0017 41.748 47.0439C41.7098 47.0871 41.6897 47.1394 41.6877 47.2006V48.0526H41.1935V47.2449C41.1935 47.1705 41.1714 47.1072 41.1292 47.056C41.089 47.0057 41.0267 46.9796 40.9443 46.9796C40.869 46.9796 40.8117 47.0037 40.7715 47.052C40.7333 47.0982 40.7152 47.1524 40.7152 47.2167V48.0526H40.225Z" fill="white" fill-opacity="0.82"/>
<path d="M44.4061 48.0526V46.622H44.8964V46.8309H44.9044C44.9064 46.8229 44.9125 46.8139 44.9205 46.8028C44.9285 46.7928 44.9456 46.7737 44.9727 46.7465C45.0019 46.7174 45.033 46.6923 45.0652 46.6702C45.0973 46.6461 45.1375 46.626 45.1857 46.6099C45.236 46.5918 45.2872 46.5818 45.3384 46.5818C45.3947 46.5818 45.4479 46.5898 45.4992 46.6059C45.5494 46.62 45.5876 46.634 45.6117 46.6501L45.6519 46.6702L45.4469 47.0881C45.3847 47.0379 45.2993 47.0118 45.1898 47.0118C45.1305 47.0118 45.0792 47.0258 45.037 47.052C44.9938 47.0761 44.9627 47.1072 44.9446 47.1444C44.9285 47.1826 44.9165 47.2147 44.9085 47.2408C44.9004 47.2649 44.8964 47.285 44.8964 47.3011V48.0526H44.4061Z" fill="white" fill-opacity="0.82"/>
<path d="M48.6737 47.4056H47.6369C47.6369 47.5081 47.669 47.5824 47.7333 47.6306C47.7996 47.6789 47.871 47.703 47.9463 47.703C48.0267 47.703 48.089 47.6929 48.1352 47.6708C48.1834 47.6497 48.2367 47.6065 48.2959 47.5422L48.6536 47.7231C48.5029 47.9702 48.2557 48.0928 47.9102 48.0928C47.6952 48.0928 47.5103 48.0194 47.3556 47.8718C47.2029 47.7251 47.1265 47.5483 47.1265 47.3413C47.1265 47.1323 47.2029 46.9545 47.3556 46.8068C47.5103 46.6571 47.6952 46.5818 47.9102 46.5818C48.1372 46.5818 48.3221 46.6481 48.4647 46.7787C48.6064 46.9103 48.6777 47.0982 48.6777 47.3413C48.6777 47.3734 48.6757 47.3956 48.6737 47.4056ZM47.653 47.1323H48.1955C48.1844 47.06 48.1553 47.0037 48.1071 46.9636C48.0608 46.9234 48.0006 46.9033 47.9262 46.9033C47.8428 46.9033 47.7775 46.9254 47.7293 46.9676C47.6811 47.0108 47.655 47.066 47.653 47.1323Z" fill="white" fill-opacity="0.82"/>
<path d="M52 48.0526H51.4053L51.0918 47.6507L50.7744 48.0526H50.1796L50.7905 47.3051L50.264 46.6219H50.8427L51.0918 46.9555L51.337 46.6219H51.9157L51.3892 47.3051L52 48.0526Z" fill="white" fill-opacity="0.82"/>
</svg>
