<svg width="26" height="21" viewBox="0 0 26 21" fill="none" xmlns="http://www.w3.org/2000/svg">
<path d="M4.03453 16.1381H0.806907C0.592902 16.1381 0.387662 16.2231 0.236337 16.3745C0.0850132 16.5258 0 16.731 0 16.945L0 20.1727C0 20.3867 0.0850132 20.5919 0.236337 20.7432C0.387662 20.8946 0.592902 20.9796 0.806907 20.9796H4.03453C4.24854 20.9796 4.45378 20.8946 4.6051 20.7432C4.75643 20.5919 4.84144 20.3867 4.84144 20.1727V16.945C4.84144 16.731 4.75643 16.5258 4.6051 16.3745C4.45378 16.2231 4.24854 16.1381 4.03453 16.1381ZM4.03453 0H0.806907C0.592902 0 0.387662 0.0850131 0.236337 0.236337C0.0850132 0.387662 0 0.592902 0 0.806907L0 4.03453C0 4.24854 0.0850132 4.45378 0.236337 4.6051C0.387662 4.75643 0.592902 4.84144 0.806907 4.84144H4.03453C4.24854 4.84144 4.45378 4.75643 4.6051 4.6051C4.75643 4.45378 4.84144 4.24854 4.84144 4.03453V0.806907C4.84144 0.592902 4.75643 0.387662 4.6051 0.236337C4.45378 0.0850131 4.24854 0 4.03453 0ZM4.03453 8.06907H0.806907C0.592902 8.06907 0.387662 8.15408 0.236337 8.3054C0.0850132 8.45673 0 8.66197 0 8.87597L0 12.1036C0 12.3176 0.0850132 12.5228 0.236337 12.6742C0.387662 12.8255 0.592902 12.9105 0.806907 12.9105H4.03453C4.24854 12.9105 4.45378 12.8255 4.6051 12.6742C4.75643 12.5228 4.84144 12.3176 4.84144 12.1036V8.87597C4.84144 8.66197 4.75643 8.45673 4.6051 8.3054C4.45378 8.15408 4.24854 8.06907 4.03453 8.06907ZM25.0141 16.945H8.87597C8.66197 16.945 8.45673 17.0301 8.3054 17.1814C8.15408 17.3327 8.06907 17.5379 8.06907 17.7519V19.3658C8.06907 19.5798 8.15408 19.785 8.3054 19.9363C8.45673 20.0877 8.66197 20.1727 8.87597 20.1727H25.0141C25.2281 20.1727 25.4333 20.0877 25.5847 19.9363C25.736 19.785 25.821 19.5798 25.821 19.3658V17.7519C25.821 17.5379 25.736 17.3327 25.5847 17.1814C25.4333 17.0301 25.2281 16.945 25.0141 16.945ZM25.0141 0.806907H8.87597C8.66197 0.806907 8.45673 0.89192 8.3054 1.04324C8.15408 1.19457 8.06907 1.39981 8.06907 1.61381V3.22763C8.06907 3.44163 8.15408 3.64687 8.3054 3.7982C8.45673 3.94952 8.66197 4.03453 8.87597 4.03453H25.0141C25.2281 4.03453 25.4333 3.94952 25.5847 3.7982C25.736 3.64687 25.821 3.44163 25.821 3.22763V1.61381C25.821 1.39981 25.736 1.19457 25.5847 1.04324C25.4333 0.89192 25.2281 0.806907 25.0141 0.806907ZM25.0141 8.87597H8.87597C8.66197 8.87597 8.45673 8.96099 8.3054 9.11231C8.15408 9.26363 8.06907 9.46887 8.06907 9.68288V11.2967C8.06907 11.5107 8.15408 11.7159 8.3054 11.8673C8.45673 12.0186 8.66197 12.1036 8.87597 12.1036H25.0141C25.2281 12.1036 25.4333 12.0186 25.5847 11.8673C25.736 11.7159 25.821 11.5107 25.821 11.2967V9.68288C25.821 9.46887 25.736 9.26363 25.5847 9.11231C25.4333 8.96099 25.2281 8.87597 25.0141 8.87597Z" fill="white" fill-opacity="0.78"/>
</svg>
