<svg xmlns="http://www.w3.org/2000/svg" width="66" height="57" viewBox="0 0 66 57" fill="none">
  <mask id="mask0_161_1625" style="mask-type:luminance" maskUnits="userSpaceOnUse" x="16" y="0" width="34" height="38">
    <path d="M16.5771 0.540833H49.0521V37.5047H16.5771V0.540833Z" fill="white"/>
  </mask>
  <g mask="url(#mask0_161_1625)">
    <path d="M48.9516 35.2173L45.8403 10.6382C45.7128 9.67327 44.8087 8.94557 43.7261 8.94557H40.2744V7.36869C40.2744 3.68549 36.9335 0.684143 32.8327 0.684143C28.7332 0.684143 25.3911 3.68549 25.3911 7.36869V8.94557H21.9393C20.8567 8.94557 19.945 9.67327 19.8251 10.6382L19.0078 17.0855C20.2855 17.2769 21.5134 17.8281 22.485 18.6933L23.4401 19.5505L24.3939 18.6933C26.6445 16.6718 30.3437 16.3727 32.7052 18.2877C35.2287 20.3241 35.3052 23.8079 32.9436 25.9371C32.9436 25.9371 25.7239 32.4223 25.5199 32.6056C24.3684 33.6393 22.5106 33.6393 21.368 32.6056C19.9195 31.3038 18.6915 30.2014 17.4814 29.1138L16.7062 35.2173C16.5608 36.3966 17.5835 37.4222 18.8968 37.4222H46.7609C48.082 37.4222 49.1059 36.3966 48.9516 35.2173ZM26.3372 12.6517C25.8182 12.6517 25.3911 12.2689 25.3911 11.7945C25.3911 11.3269 25.8182 10.9442 26.3372 10.9442C26.8664 10.9442 27.2923 11.3269 27.2923 11.7945C27.2923 12.2689 26.8664 12.6517 26.3372 12.6517ZM27.2923 8.94557V7.36869C27.2923 4.62749 29.7724 2.39166 32.8327 2.39166C35.8841 2.39166 38.3731 4.62749 38.3731 7.36869V8.94557H27.2923ZM39.3193 12.6517C38.8003 12.6517 38.3731 12.2689 38.3731 11.7945C38.3731 11.3269 38.8003 10.9442 39.3193 10.9442C39.8485 10.9442 40.2744 11.3269 40.2744 11.7945C40.2744 12.2689 39.8485 12.6517 39.3193 12.6517Z" fill="#06919A"/>
  </g>
  <path d="M7.44823 49.5495C6.51611 49.5495 5.76761 49.3341 5.204 48.9032C4.63912 48.4723 4.34967 47.8489 4.33691 47.0329H6.24961C6.27256 47.7824 6.66912 48.156 7.43803 48.156C7.76701 48.156 8.01693 48.0964 8.1878 47.9772C8.35739 47.8581 8.44283 47.6965 8.44283 47.4913C8.44283 47.3332 8.38162 47.198 8.25921 47.088C8.13935 46.9779 7.98888 46.8886 7.80526 46.8175C7.62419 46.7476 7.36152 46.6605 7.01468 46.5562C6.49698 46.4038 6.07619 46.2537 5.74976 46.107C5.42587 45.9603 5.14407 45.7426 4.90307 45.4515C4.66462 45.1581 4.54604 44.7799 4.54604 44.3147C4.54604 43.9296 4.66462 43.5881 4.90307 43.2879C5.14407 42.9853 5.4807 42.7504 5.91297 42.5819C6.34397 42.4112 6.83744 42.3252 7.39212 42.3252C7.89452 42.3252 8.36632 42.4112 8.80496 42.5819C9.24361 42.7504 9.60064 43.0117 9.87607 43.3658C10.154 43.721 10.2969 44.1634 10.3045 44.6951H8.42242C8.41477 44.396 8.32679 44.1588 8.1572 43.9846C7.98633 43.8081 7.7313 43.7187 7.39212 43.7187C7.11924 43.7187 6.90502 43.7772 6.74946 43.8929C6.59644 44.0098 6.51993 44.1634 6.51993 44.3559C6.51993 44.5828 6.63214 44.7547 6.85657 44.8739C7.08099 44.9931 7.43547 45.1237 7.92257 45.2635C8.439 45.4137 8.86362 45.5638 9.1977 45.7128C9.53051 45.8629 9.81614 46.0864 10.0546 46.382C10.2956 46.6754 10.4167 47.0593 10.4167 47.5326C10.4167 47.9028 10.2994 48.2408 10.0648 48.5456C9.83272 48.8516 9.49353 49.0957 9.04469 49.2791C8.59839 49.459 8.06666 49.5495 7.44823 49.5495Z" fill="#06919A"/>
  <path d="M14.4107 44.1176C14.8621 44.1176 15.2638 44.2127 15.6144 44.4018C15.9638 44.592 16.238 44.8533 16.4356 45.1856C16.6358 45.5157 16.7366 45.8938 16.7366 46.3179V49.4212H14.8902V46.6754C14.8902 46.3488 14.8035 46.0909 14.63 45.9007C14.4566 45.7082 14.2093 45.6119 13.8905 45.6119C13.5806 45.6119 13.3269 45.7105 13.1305 45.9053C12.9367 46.1013 12.8398 46.358 12.8398 46.6754V49.4212H10.9883V42.2565H12.8398V44.6355C13.2746 44.2906 13.7987 44.1176 14.4107 44.1176Z" fill="#06919A"/>
  <path d="M20.3997 49.5495C19.8553 49.5495 19.3363 49.4395 18.8441 49.2194C18.3544 48.9971 17.9591 48.6808 17.6608 48.2706C17.3611 47.858 17.2119 47.3801 17.2119 46.8358C17.2119 46.2926 17.3611 45.8136 17.6608 45.401C17.9591 44.9884 18.3544 44.6722 18.8441 44.4521C19.3363 44.2298 19.8553 44.1175 20.3997 44.1175C20.9468 44.1175 21.4657 44.2298 21.9554 44.4521C22.4476 44.6722 22.8442 44.9884 23.1438 45.401C23.4422 45.8136 23.5927 46.2926 23.5927 46.8358C23.5927 47.3801 23.4422 47.858 23.1438 48.2706C22.8442 48.6808 22.4476 48.9971 21.9554 49.2194C21.4657 49.4395 20.9468 49.5495 20.3997 49.5495ZM20.3997 48.0597C20.7835 48.0597 21.1036 47.9439 21.3586 47.7113C21.6137 47.4798 21.7412 47.1876 21.7412 46.8358C21.7412 46.4817 21.6137 46.1894 21.3586 45.9602C21.1036 45.7288 20.7835 45.6119 20.3997 45.6119C20.0146 45.6119 19.6959 45.7288 19.4408 45.9602C19.1884 46.1894 19.0634 46.4817 19.0634 46.8358C19.0634 47.1876 19.1884 47.4798 19.4408 47.7113C19.6959 47.9439 20.0146 48.0597 20.3997 48.0597Z" fill="#06919A"/>
  <path d="M27.6057 44.1175C28.0954 44.1175 28.5608 44.2298 29.0033 44.4521C29.4445 44.6722 29.8015 44.9907 30.0744 45.4056C30.3498 45.8216 30.4875 46.2983 30.4875 46.8358C30.4875 47.371 30.3498 47.8465 30.0744 48.2614C29.8015 48.6774 29.4445 48.9971 29.0033 49.2194C28.5608 49.4395 28.0954 49.5495 27.6057 49.5495C26.9427 49.5495 26.3969 49.3776 25.9685 49.0315V51.4106H24.1221V44.2458H25.8358V44.7547C26.2707 44.3306 26.861 44.1175 27.6057 44.1175ZM27.264 48.0597C27.6618 48.0597 27.9895 47.9439 28.2484 47.7113C28.506 47.4798 28.636 47.1876 28.636 46.8358C28.636 46.4817 28.506 46.1894 28.2484 45.9602C27.9895 45.7288 27.6618 45.6119 27.264 45.6119C26.8661 45.6119 26.5372 45.7288 26.2796 45.9602C26.0207 46.1894 25.8919 46.4817 25.8919 46.8358C25.8919 47.1876 26.0207 47.4798 26.2796 47.7113C26.5372 47.9439 26.8661 48.0597 27.264 48.0597Z" fill="#06919A"/>
  <path d="M33.7637 49.5495C32.8315 49.5495 32.083 49.3341 31.5194 48.9032C30.9545 48.4723 30.6651 47.8489 30.6523 47.0329H32.565C32.588 47.7824 32.9846 48.156 33.7535 48.156C34.0824 48.156 34.3324 48.0964 34.5032 47.9772C34.6728 47.8581 34.7583 47.6965 34.7583 47.4913C34.7583 47.3332 34.697 47.198 34.5746 47.088C34.4548 46.9779 34.3043 46.8886 34.1207 46.8175C33.9396 46.7476 33.6769 46.6605 33.3301 46.5562C32.8124 46.4038 32.3916 46.2537 32.0652 46.107C31.7413 45.9603 31.4595 45.7426 31.2185 45.4515C30.9801 45.1581 30.8615 44.7799 30.8615 44.3147C30.8615 43.9296 30.9801 43.5881 31.2185 43.2879C31.4595 42.9853 31.7961 42.7504 32.2284 42.5819C32.6594 42.4112 33.1529 42.3252 33.7076 42.3252C34.21 42.3252 34.6817 42.4112 35.1204 42.5819C35.559 42.7504 35.9161 43.0117 36.1915 43.3658C36.4695 43.721 36.6123 44.1634 36.6199 44.6951H34.7379C34.7302 44.396 34.6422 44.1588 34.4726 43.9846C34.3018 43.8081 34.0467 43.7187 33.7076 43.7187C33.4347 43.7187 33.2205 43.7772 33.0649 43.8929C32.9119 44.0098 32.8354 44.1634 32.8354 44.3559C32.8354 44.5828 32.9476 44.7547 33.172 44.8739C33.3964 44.9931 33.7509 45.1237 34.238 45.2635C34.7544 45.4137 35.179 45.5638 35.5131 45.7128C35.8459 45.8629 36.1316 46.0864 36.37 46.382C36.611 46.6754 36.7322 47.0593 36.7322 47.5326C36.7322 47.9028 36.6148 48.2408 36.3802 48.5456C36.1481 48.8516 35.809 49.0957 35.3601 49.2791C34.9138 49.459 34.3821 49.5495 33.7637 49.5495Z" fill="#06919A"/>
  <path d="M44.1376 44.1175C44.5661 44.1175 44.9397 44.208 45.2598 44.3879C45.5824 44.5656 45.8323 44.8177 46.0095 45.1443C46.1855 45.4686 46.2748 45.8434 46.2748 46.2674V49.4211H44.4233V46.5653C44.4233 46.2662 44.3468 46.0324 44.1938 45.864C44.0433 45.6967 43.8393 45.6119 43.5817 45.6119C43.333 45.6119 43.1226 45.6978 42.9492 45.8686C42.7758 46.0405 42.6891 46.272 42.6891 46.5653V49.4211H40.8376V46.5653C40.8376 46.2662 40.7611 46.0324 40.6081 45.864C40.4576 45.6967 40.2536 45.6119 39.996 45.6119C39.7436 45.6119 39.5319 45.6978 39.3585 45.8686C39.185 46.0405 39.0983 46.272 39.0983 46.5653V49.4211H37.252V44.2458H38.9096V44.7913C39.3444 44.3421 39.8915 44.1175 40.552 44.1175C40.9052 44.1175 41.2355 44.1943 41.5415 44.3467C41.8475 44.5003 42.0847 44.7042 42.2556 44.9609C42.7656 44.3994 43.393 44.1175 44.1376 44.1175Z" fill="#06919A"/>
  <path d="M51.4298 44.2458H53.1486V49.4211H51.4298V48.9123C50.9937 49.3375 50.4046 49.5495 49.6599 49.5495C49.1728 49.5495 48.7074 49.4395 48.2624 49.2194C47.8199 48.9971 47.4628 48.6774 47.1912 48.2614C46.9184 47.8465 46.7832 47.371 46.7832 46.8358C46.7832 46.2983 46.9184 45.8216 47.1912 45.4056C47.4628 44.9907 47.8199 44.6722 48.2624 44.4521C48.7074 44.2298 49.1728 44.1175 49.6599 44.1175C50.4046 44.1175 50.9937 44.3306 51.4298 44.7547V44.2458ZM50.0016 48.0597C50.402 48.0597 50.7323 47.9439 50.9911 47.7113C51.2487 47.4798 51.3788 47.1876 51.3788 46.8358C51.3788 46.4817 51.2487 46.1894 50.9911 45.9602C50.7323 45.7288 50.402 45.6119 50.0016 45.6119C49.6038 45.6119 49.2748 45.7288 49.0172 45.9602C48.7584 46.1894 48.6296 46.4817 48.6296 46.8358C48.6296 47.1876 48.7584 47.4798 49.0172 47.7113C49.2748 47.9439 49.6038 48.0597 50.0016 48.0597Z" fill="#06919A"/>
  <path d="M57.9728 44.1771V45.6714H57.2332C56.8557 45.6714 56.5357 45.786 56.2743 46.0152C56.0116 46.2421 55.8815 46.5309 55.8815 46.8816V49.4211H54.0352V44.2458H55.7489V44.8051C56.208 44.3868 56.7971 44.1771 57.5188 44.1771H57.9728Z" fill="#06919A"/>
  <path d="M61.5835 44.443H60.2675V47.143C60.2675 47.3882 60.3415 47.5807 60.4919 47.7205C60.645 47.8581 60.8566 47.9268 61.1295 47.9268H61.5835V49.4212H60.5633C59.8761 49.4212 59.3456 49.2493 58.972 48.9032C58.6009 48.5583 58.416 48.0804 58.416 47.4684V44.443H57.4775V44.2459H58.416V42.8707H60.2675V44.2459H61.5835V44.443Z" fill="#06919A"/>
  <path d="M1.86169 53.9281C2.03128 54.0932 2.11671 54.2972 2.11671 54.5378C2.11671 54.7796 2.03128 54.9847 1.86169 55.1521C1.69465 55.3171 1.48042 55.3996 1.21902 55.3996C0.976748 55.3996 0.777828 55.3331 0.622263 55.1979V56.1789H0V53.7219H0.617162V53.9098H0.622263C0.777828 53.754 0.976748 53.676 1.21902 53.676C1.48042 53.676 1.69465 53.7608 1.86169 53.9281ZM1.33123 54.8174C1.41284 54.7441 1.45365 54.6513 1.45365 54.5378C1.45365 54.4255 1.41412 54.3338 1.33633 54.2628C1.25728 54.1929 1.15527 54.1573 1.0303 54.1573C0.907891 54.1573 0.805881 54.194 0.724273 54.2674C0.645215 54.3384 0.606961 54.4278 0.606961 54.5378C0.606961 54.6513 0.647765 54.7441 0.729373 54.8174C0.810981 54.8885 0.910441 54.9229 1.0303 54.9229C1.14889 54.9229 1.24963 54.8885 1.33123 54.8174Z" fill="#06919A"/>
  <path d="M4.40738 55.1612C4.20591 54.9996 4.10645 54.7934 4.10645 54.5424C4.10645 54.2891 4.20973 54.0817 4.41758 53.919C4.62797 53.7574 4.8881 53.676 5.19795 53.676C5.50016 53.676 5.75519 53.7585 5.96303 53.9236C6.17343 54.0863 6.27926 54.2926 6.27926 54.5424C6.27926 54.7899 6.17725 54.9951 5.97323 55.1566C5.76921 55.3194 5.51036 55.3996 5.19795 55.3996C4.87152 55.3996 4.60757 55.3205 4.40738 55.1612ZM4.89192 54.2674C4.81032 54.3384 4.76951 54.4301 4.76951 54.5424C4.76951 54.6524 4.80777 54.7441 4.88682 54.8174C4.96461 54.8885 5.06662 54.9229 5.19285 54.9229C5.31527 54.9229 5.41473 54.8885 5.49378 54.8174C5.57539 54.7441 5.6162 54.6524 5.6162 54.5424C5.6162 54.4301 5.57539 54.3384 5.49378 54.2674C5.41218 54.194 5.31144 54.1573 5.19285 54.1573C5.07299 54.1573 4.97353 54.194 4.89192 54.2674Z" fill="#06919A"/>
  <path d="M9.51277 55.3538H9.08943L8.11523 53.7219H8.83951L9.27815 54.602L9.71169 53.7219H10.1452L10.5788 54.602L11.0225 53.7219H11.7417L10.7726 55.3538H10.3442L9.93102 54.5103L9.51277 55.3538Z" fill="#06919A"/>
  <path d="M15.5428 54.6157H14.2269C14.2269 54.7326 14.2677 54.8174 14.3493 54.8724C14.4334 54.9274 14.524 54.9549 14.6196 54.9549C14.7216 54.9549 14.8007 54.9435 14.8593 54.9183C14.9205 54.8942 14.9881 54.8449 15.0634 54.7716L15.5173 54.9779C15.326 55.2598 15.0123 55.3996 14.5737 55.3996C14.3008 55.3996 14.0662 55.3159 13.8698 55.1475C13.676 54.9802 13.5791 54.7785 13.5791 54.5424C13.5791 54.304 13.676 54.1012 13.8698 53.9327C14.0662 53.762 14.3008 53.676 14.5737 53.676C14.8619 53.676 15.0965 53.7517 15.2776 53.9006C15.4574 54.0508 15.5479 54.2651 15.5479 54.5424C15.5479 54.5791 15.5453 54.6043 15.5428 54.6157ZM14.2473 54.304H14.9358C14.9218 54.2215 14.8848 54.1573 14.8236 54.1115C14.765 54.0657 14.6885 54.0427 14.5941 54.0427C14.4883 54.0427 14.4054 54.068 14.3442 54.1161C14.283 54.1654 14.2498 54.2284 14.2473 54.304Z" fill="#06919A"/>
  <path d="M17.668 55.3538V53.7219H18.2902V53.9602H18.3004C18.303 53.9511 18.3106 53.9407 18.3208 53.9281C18.331 53.9167 18.3527 53.8949 18.3871 53.864C18.4241 53.8307 18.4636 53.8021 18.5045 53.7769C18.5453 53.7494 18.5963 53.7264 18.6575 53.7081C18.7212 53.6875 18.7863 53.676 18.8513 53.676C18.9227 53.676 18.9903 53.6852 19.0553 53.7035C19.1191 53.7196 19.1675 53.7356 19.1981 53.754L19.2491 53.7769L18.989 54.2536C18.9099 54.1963 18.8016 54.1665 18.6626 54.1665C18.5873 54.1665 18.5223 54.1826 18.4687 54.2123C18.4139 54.2399 18.3744 54.2754 18.3514 54.3178C18.331 54.3613 18.3157 54.398 18.3055 54.4278C18.2953 54.4553 18.2902 54.4782 18.2902 54.4966V55.3538H17.668Z" fill="#06919A"/>
  <path d="M23.0848 54.6157H21.7689C21.7689 54.7326 21.8097 54.8174 21.8913 54.8724C21.9754 54.9274 22.066 54.9549 22.1616 54.9549C22.2636 54.9549 22.3427 54.9435 22.4013 54.9183C22.4625 54.8942 22.5301 54.8449 22.6053 54.7716L23.0593 54.9779C22.868 55.2598 22.5543 55.3996 22.1157 55.3996C21.8428 55.3996 21.6082 55.3159 21.4118 55.1475C21.218 54.9802 21.1211 54.7785 21.1211 54.5424C21.1211 54.304 21.218 54.1012 21.4118 53.9327C21.6082 53.762 21.8428 53.676 22.1157 53.676C22.4039 53.676 22.6385 53.7517 22.8196 53.9006C22.9994 54.0508 23.0899 54.2651 23.0899 54.5424C23.0899 54.5791 23.0873 54.6043 23.0848 54.6157ZM21.7893 54.304H22.4778C22.4638 54.2215 22.4268 54.1573 22.3656 54.1115C22.307 54.0657 22.2305 54.0427 22.1361 54.0427C22.0303 54.0427 21.9474 54.068 21.8862 54.1161C21.825 54.1654 21.7918 54.2284 21.7893 54.304Z" fill="#06919A"/>
  <path d="M25.3322 55.152C25.1613 54.987 25.0771 54.7842 25.0771 54.5423C25.0771 54.3017 25.1613 54.0966 25.3322 53.9281C25.5018 53.7608 25.7173 53.676 25.9799 53.676C26.2171 53.676 26.4148 53.7436 26.5716 53.8777V52.6217H27.199V55.3537H26.5767V55.1704H26.5716C26.4148 55.3239 26.2171 55.3995 25.9799 55.3995C25.7173 55.3995 25.5018 55.317 25.3322 55.152ZM25.8626 54.2673C25.781 54.3384 25.7402 54.43 25.7402 54.5423C25.7402 54.6524 25.7785 54.744 25.8575 54.8174C25.9353 54.8884 26.0373 54.9228 26.1636 54.9228C26.286 54.9228 26.3854 54.8884 26.4645 54.8174C26.5461 54.744 26.5869 54.6524 26.5869 54.5423C26.5869 54.43 26.5461 54.3384 26.4645 54.2673C26.3829 54.194 26.2821 54.1573 26.1636 54.1573C26.0437 54.1573 25.9442 54.194 25.8626 54.2673Z" fill="#06919A"/>
  <path d="M34.1019 53.9281C34.2715 54.0966 34.3569 54.3017 34.3569 54.5423C34.3569 54.7842 34.2715 54.987 34.1019 55.152C33.9349 55.317 33.7207 55.3995 33.4593 55.3995C33.217 55.3995 33.0181 55.3239 32.8625 55.1704H32.8574V55.3537H32.2402V52.6217H32.8625V53.8777C33.0181 53.7436 33.217 53.676 33.4593 53.676C33.7207 53.676 33.9349 53.7608 34.1019 53.9281ZM33.5766 54.8174C33.6544 54.744 33.6939 54.6524 33.6939 54.5423C33.6939 54.43 33.6531 54.3384 33.5715 54.2673C33.4899 54.194 33.3891 54.1573 33.2705 54.1573C33.1507 54.1573 33.0512 54.194 32.9696 54.2673C32.888 54.3384 32.8472 54.43 32.8472 54.5423C32.8472 54.6524 32.8854 54.744 32.9645 54.8174C33.0461 54.8884 33.1481 54.9228 33.2705 54.9228C33.3955 54.9228 33.4975 54.8884 33.5766 54.8174Z" fill="#06919A"/>
  <path d="M37.851 53.7219H38.5753L37.1472 56.1789H36.428L37.0553 55.1017L36.1934 53.7219H36.9176L37.4226 54.5608L37.851 53.7219Z" fill="#06919A"/>
  <path d="M44.2958 54.139C44.176 54.139 44.074 54.1791 43.9898 54.2582C43.9044 54.335 43.8623 54.4278 43.8623 54.5378C43.8623 54.6513 43.9044 54.7475 43.9898 54.8266C44.074 54.9034 44.176 54.9412 44.2958 54.9412C44.3494 54.9412 44.4029 54.9355 44.4539 54.9229C44.5049 54.9114 44.5419 54.8976 44.5662 54.8816L44.5968 54.8633L44.811 55.2575C44.7931 55.2667 44.7702 55.2793 44.7396 55.2942C44.7115 55.3102 44.6452 55.3308 44.5407 55.3583C44.4348 55.3858 44.3226 55.3996 44.204 55.3996C43.935 55.3996 43.7003 55.3159 43.5001 55.1475C43.2987 54.9802 43.1992 54.7785 43.1992 54.5424C43.1992 54.3075 43.2987 54.1046 43.5001 53.9327C43.7003 53.762 43.935 53.676 44.204 53.676C44.3226 53.676 44.4335 53.6898 44.5356 53.7173C44.6376 53.7425 44.709 53.7666 44.7498 53.7906L44.811 53.8273L44.5968 54.2123C44.5177 54.1642 44.4182 54.139 44.2958 54.139Z" fill="#06919A"/>
  <path d="M47.0617 55.1612C46.8602 54.9996 46.7607 54.7934 46.7607 54.5424C46.7607 54.2891 46.864 54.0817 47.0719 53.919C47.2823 53.7574 47.5424 53.676 47.8523 53.676C48.1545 53.676 48.4095 53.7585 48.6173 53.9236C48.8277 54.0863 48.9336 54.2926 48.9336 54.5424C48.9336 54.7899 48.8316 54.9951 48.6275 55.1566C48.4235 55.3194 48.1647 55.3996 47.8523 55.3996C47.5258 55.3996 47.2619 55.3205 47.0617 55.1612ZM47.5462 54.2674C47.4646 54.3384 47.4238 54.4301 47.4238 54.5424C47.4238 54.6524 47.4621 54.7441 47.5411 54.8174C47.6189 54.8885 47.7209 54.9229 47.8472 54.9229C47.9696 54.9229 48.069 54.8885 48.1481 54.8174C48.2297 54.7441 48.2705 54.6524 48.2705 54.5424C48.2705 54.4301 48.2297 54.3384 48.1481 54.2674C48.0665 54.194 47.9657 54.1573 47.8472 54.1573C47.7273 54.1573 47.6278 54.194 47.5462 54.2674Z" fill="#06919A"/>
  <path d="M51.0547 55.3538V53.7219H51.6769V53.8961H51.6872C51.8465 53.7494 52.0187 53.676 52.2023 53.676C52.3349 53.676 52.4586 53.7012 52.5746 53.7494C52.6894 53.7986 52.7787 53.8731 52.8399 53.974C53.0235 53.7757 53.2224 53.676 53.4366 53.676C53.6304 53.676 53.7962 53.7253 53.9365 53.8227C54.0755 53.9213 54.1456 54.0737 54.1456 54.2811V55.3538H53.5182V54.4324C53.5182 54.3476 53.4902 54.2754 53.4366 54.2169C53.3856 54.1596 53.3066 54.1298 53.202 54.1298C53.1102 54.1298 53.0388 54.155 52.9878 54.2032C52.9393 54.2525 52.9138 54.312 52.9113 54.382V55.3538H52.2839V54.4324C52.2839 54.3476 52.2559 54.2754 52.2023 54.2169C52.1513 54.1596 52.0722 54.1298 51.9677 54.1298C51.872 54.1298 51.7994 54.1573 51.7484 54.2123C51.6999 54.2651 51.6769 54.3269 51.6769 54.4003V55.3538H51.0547Z" fill="#06919A"/>
  <path d="M56.3613 55.3538V53.7219H56.9836V53.9602H56.9938C56.9963 53.9511 57.004 53.9407 57.0142 53.9281C57.0244 53.9167 57.0461 53.8949 57.0805 53.864C57.1175 53.8307 57.157 53.8021 57.1978 53.7769C57.2386 53.7494 57.2896 53.7264 57.3508 53.7081C57.4146 53.6875 57.4796 53.676 57.5446 53.676C57.6161 53.676 57.6836 53.6852 57.7487 53.7035C57.8124 53.7196 57.8609 53.7356 57.8915 53.754L57.9425 53.7769L57.6824 54.2536C57.6033 54.1963 57.4949 54.1665 57.3559 54.1665C57.2807 54.1665 57.2157 54.1826 57.1621 54.2123C57.1073 54.2399 57.0677 54.2754 57.0448 54.3178C57.0244 54.3613 57.0091 54.398 56.9989 54.4278C56.9887 54.4553 56.9836 54.4782 56.9836 54.4966V55.3538H56.3613Z" fill="#06919A"/>
  <path d="M61.7782 54.6157H60.4622C60.4622 54.7326 60.503 54.8174 60.5846 54.8724C60.6688 54.9274 60.7593 54.9549 60.855 54.9549C60.957 54.9549 61.036 54.9435 61.0947 54.9183C61.1559 54.8942 61.2235 54.8449 61.2987 54.7716L61.7526 54.9779C61.5614 55.2598 61.2477 55.3996 60.8091 55.3996C60.5362 55.3996 60.3016 55.3159 60.1052 55.1475C59.9114 54.9802 59.8145 54.7785 59.8145 54.5424C59.8145 54.304 59.9114 54.1012 60.1052 53.9327C60.3016 53.762 60.5362 53.676 60.8091 53.676C61.0972 53.676 61.3319 53.7517 61.5129 53.9006C61.6927 54.0508 61.7833 54.2651 61.7833 54.5424C61.7833 54.5791 61.7807 54.6043 61.7782 54.6157ZM60.4826 54.304H61.1712C61.1572 54.2215 61.1202 54.1573 61.059 54.1115C61.0003 54.0657 60.9238 54.0427 60.8295 54.0427C60.7236 54.0427 60.6407 54.068 60.5795 54.1161C60.5183 54.1654 60.4852 54.2284 60.4826 54.304Z" fill="#06919A"/>
  <path d="M66 55.3538H65.2451L64.8473 54.8954L64.4443 55.3538H63.6895L64.4647 54.5012L63.7966 53.7219H64.531L64.8473 54.1024L65.1584 53.7219H65.8929L65.2247 54.5012L66 55.3538Z" fill="#06919A"/>
</svg>