<svg width="12" height="11" viewBox="0 0 12 11" fill="none" xmlns="http://www.w3.org/2000/svg">
<path d="M4.7183 1.48726C4.05056 2.97452 3.98985 3.00487 2.38119 3.21734C0.226193 3.4905 0.0744327 3.94579 1.59204 5.55445C2.71507 6.73818 2.77577 6.92029 2.5633 8.04332C2.04732 10.6232 2.25978 10.775 4.56654 9.65198L5.93239 8.98423L7.29823 9.65198C9.60499 10.775 9.81746 10.6232 9.30147 8.04332C9.08901 6.92029 9.14971 6.73818 10.2727 5.55445C11.7903 3.94579 11.6386 3.4905 9.48358 3.21734C7.87492 3.00487 7.81422 2.97452 7.14647 1.48726C6.72154 0.576702 6.23591 1.23978e-05 5.93239 1.23978e-05C5.62887 1.23978e-05 5.14323 0.576702 4.7183 1.48726Z" fill="#06919A"/>
</svg>
