<svg xmlns="http://www.w3.org/2000/svg" width="22" height="20" viewBox="0 0 22 20" fill="none">
  <path d="M15.7589 0.0114727C15.69 0.0200806 15.4747 0.0502148 15.2853 0.0760441C14.5449 0.175053 13.6883 0.536652 12.9995 1.036C12.8144 1.17375 12.2591 1.68602 11.7727 2.18106L10.8816 3.07645L10.5243 2.71055C10.3263 2.51253 9.92592 2.13371 9.6332 1.86682C8.15667 0.528042 7.07187 0.0717392 5.34136 0.0717392C4.58803 0.0717392 4.1059 0.144918 3.48171 0.351547C1.69094 0.949907 0.472696 2.28438 0.0852691 4.07515C-0.0352638 4.63046 -0.0266543 5.74539 0.102488 6.39111C0.390906 7.82028 1.09688 9.25376 2.24625 10.726C3.13303 11.871 4.51485 13.283 6.54669 15.1427C7.67884 16.1758 8.50105 16.955 10.421 18.806L10.8988 19.2666L12.1472 18.0182C12.8316 17.3295 14.3813 15.8142 15.5867 14.6476C18.7377 11.6042 19.9689 10.2654 20.9073 8.86633C21.4368 8.08287 21.7554 7.35967 21.9232 6.57191C22.018 6.1156 22.0266 5.09538 21.9405 4.65629C21.4928 2.392 19.5858 0.540956 17.2354 0.0932617C16.8781 0.0243855 15.9999 -0.0229664 15.7589 0.0114727Z" fill="#06919A"/>
</svg>