<svg xmlns="http://www.w3.org/2000/svg" width="22" height="20" viewBox="0 0 22 20" fill="none">
  <path d="M15.9 1.00146L15.8916 1.00266L15.8829 1.00375C15.8444 1.00856 15.7515 1.02136 15.6385 1.03693C15.5706 1.04628 15.4955 1.05664 15.4204 1.06688L15.4179 1.06722C14.8672 1.14085 14.1669 1.42641 13.5926 1.84115C13.4692 1.93481 12.9675 2.3919 12.4859 2.88194L12.486 2.88196L12.4815 2.88647L11.5904 3.78185L10.8748 4.50088L10.1661 3.77509L9.8131 3.41359C9.62827 3.22905 9.24434 2.86557 8.96051 2.60675C8.26783 1.97881 7.7238 1.61053 7.19628 1.38964C6.67806 1.17264 6.11309 1.07174 5.34136 1.07174C4.68129 1.07174 4.30691 1.13189 3.79767 1.30032C2.32919 1.79131 1.37251 2.8544 1.06266 4.28661L1.06251 4.28727C1.02528 4.45882 0.997206 4.7911 1.00022 5.1917C1.00318 5.58466 1.03533 5.95584 1.08292 6.19425C1.33364 7.43572 1.95607 8.72927 3.03449 10.1106L3.03449 10.1106L3.03688 10.1137C3.86934 11.1886 5.19911 12.5536 7.22137 14.4045C8.31701 15.4044 9.12549 16.1691 10.8859 17.8653L11.4378 17.3133C11.4382 17.313 11.4385 17.3127 11.4389 17.3123C12.1313 16.6156 13.6862 15.0953 14.8912 13.929L14.8919 13.9283C18.0476 10.8805 19.2052 9.60881 20.0768 8.30927L20.0788 8.30639C20.5468 7.61386 20.8072 7.00918 20.9446 6.36639C20.9715 6.23464 20.9966 5.94513 20.9997 5.59884C21.0028 5.2491 20.9822 4.96701 20.9593 4.84945C20.594 3.00392 19.0164 1.45048 17.0483 1.0756L17.0461 1.07518C16.9372 1.05419 16.6843 1.02778 16.3988 1.01212C16.2638 1.00472 16.1371 1.00058 16.0355 1.00002C15.9602 0.999607 15.9184 1.00138 15.9026 1.00204C15.8936 1.00242 15.8931 1.00244 15.9 1.00146Z" stroke="#06919A" stroke-width="2"/>
</svg>